<svg width="18" height="18" viewBox="0 0 18 18" fill="none" xmlns="http://www.w3.org/2000/svg">
<path fill-rule="evenodd" clip-rule="evenodd" d="M16.241 6.79723L8.01709 14.9389C6.65442 16.288 4.44493 16.288 3.08227 14.9389C1.71961 13.5903 1.71961 11.4033 3.08227 10.0541L10.4842 2.72611C11.3923 1.82687 12.8652 1.82687 13.7739 2.72611C14.6819 3.62534 14.6819 5.08377 13.7739 5.98243L6.37194 13.3104C5.91791 13.7604 5.18142 13.7604 4.72682 13.3104C4.27279 12.8611 4.27279 12.1319 4.72682 11.682L11.3068 5.16878L10.4842 4.35455L3.90482 10.8683C2.99619 11.767 2.99619 13.2254 3.90482 14.1252C4.81288 15.0239 6.28588 15.0239 7.19451 14.1247L14.5959 6.79723C15.9585 5.44867 15.9591 3.26044 14.5964 1.91188C13.2332 0.56274 11.0243 0.56274 9.66163 1.91188L1.84841 9.64644L1.8773 9.67477C0.457454 11.4813 0.582796 14.0929 2.2597 15.7531C3.93718 17.4134 6.5747 17.5377 8.39948 16.1319L8.42779 16.1602L17.0636 7.61145L16.241 6.79723Z" fill="#70AD47"/>
</svg>
