<svg width="16" height="17" viewBox="0 0 16 17" fill="none" xmlns="http://www.w3.org/2000/svg">
<g clip-path="url(#clip0_584_68)">
<path d="M15.502 7.48828C15.502 7.09046 15.3439 6.70893 15.0626 6.42762C14.7813 6.14632 14.3998 5.98828 14.002 5.98828H3.50195V2.98828C3.50195 2.72306 3.60731 2.46871 3.79485 2.28117C3.98238 2.09364 4.23674 1.98828 4.50195 1.98828C4.76717 1.98828 5.02152 2.09364 5.20906 2.28117C5.3966 2.46871 5.50195 2.72306 5.50195 2.98828H5.00195C4.86934 2.98828 4.74217 3.04096 4.6484 3.13473C4.55463 3.2285 4.50195 3.35567 4.50195 3.48828C4.50195 3.62089 4.55463 3.74807 4.6484 3.84183C4.74217 3.9356 4.86934 3.98828 5.00195 3.98828H7.00195C7.13456 3.98828 7.26174 3.9356 7.35551 3.84183C7.44927 3.74807 7.50195 3.62089 7.50195 3.48828C7.50195 3.35567 7.44927 3.2285 7.35551 3.13473C7.26174 3.04096 7.13456 2.98828 7.00195 2.98828H6.50195C6.50195 2.45785 6.29124 1.94914 5.91617 1.57407C5.54109 1.19899 5.03239 0.988281 4.50195 0.988281C3.97152 0.988281 3.46281 1.19899 3.08774 1.57407C2.71267 1.94914 2.50195 2.45785 2.50195 2.98828V5.98828H2.00195C1.60413 5.98828 1.2226 6.14632 0.941293 6.42762C0.659988 6.70893 0.501953 7.09046 0.501953 7.48828C0.503787 7.81048 0.609323 8.12353 0.802936 8.38108C0.996549 8.63863 1.26795 8.82699 1.57695 8.91828L2.35195 12.7833C2.40873 13.0868 2.55781 13.3655 2.77885 13.5811C2.99988 13.7968 3.28209 13.939 3.58695 13.9883L3.03695 15.3183C2.98748 15.441 2.98865 15.5783 3.04019 15.7001C3.09173 15.8219 3.18945 15.9184 3.31195 15.9683C3.37291 15.9895 3.43792 15.9963 3.50195 15.9883C3.60152 15.9888 3.69896 15.9595 3.78181 15.9043C3.86465 15.8491 3.92912 15.7704 3.96695 15.6783L4.65695 13.9883H11.347L12.037 15.6783C12.0748 15.7704 12.1393 15.8491 12.2221 15.9043C12.3049 15.9595 12.4024 15.9888 12.502 15.9883C12.5675 15.99 12.6326 15.9763 12.692 15.9483C12.8145 15.8984 12.9122 15.8019 12.9637 15.6801C13.0153 15.5583 13.0164 15.421 12.967 15.2983L12.417 13.9883C12.7191 13.9403 12.9993 13.801 13.2201 13.5892C13.4408 13.3774 13.5915 13.1032 13.652 12.8033L14.427 8.93828C14.7392 8.84603 15.013 8.65466 15.207 8.39307C15.4009 8.13149 15.5044 7.8139 15.502 7.48828ZM12.672 12.5883C12.6486 12.7029 12.5857 12.8057 12.4944 12.8788C12.403 12.9519 12.2889 12.9906 12.172 12.9883H3.82195C3.70498 12.9906 3.59088 12.9519 3.49952 12.8788C3.40817 12.8057 3.34533 12.7029 3.32195 12.5883L2.61195 8.98828H13.392L12.672 12.5883ZM14.002 7.98828H2.00195C1.86934 7.98828 1.74217 7.9356 1.6484 7.84183C1.55463 7.74807 1.50195 7.62089 1.50195 7.48828C1.50195 7.35567 1.55463 7.2285 1.6484 7.13473C1.74217 7.04096 1.86934 6.98828 2.00195 6.98828H14.002C14.1346 6.98828 14.2617 7.04096 14.3555 7.13473C14.4493 7.2285 14.502 7.35567 14.502 7.48828C14.502 7.62089 14.4493 7.74807 14.3555 7.84183C14.2617 7.9356 14.1346 7.98828 14.002 7.98828Z" fill="#33691E"/>
</g>
<defs>
<clipPath id="clip0_584_68">
<rect width="16" height="16" fill="white" transform="translate(0 0.457031)"/>
</clipPath>
</defs>
</svg>
