<svg width="16" height="17" viewBox="0 0 16 17" fill="none" xmlns="http://www.w3.org/2000/svg">
<path d="M14.498 8.46094H11.998V6.46094C11.998 6.32833 11.9454 6.20115 11.8516 6.10738C11.7578 6.01362 11.6307 5.96094 11.498 5.96094H4.49805C4.36544 5.96094 4.23826 6.01362 4.14449 6.10738C4.05073 6.20115 3.99805 6.32833 3.99805 6.46094V8.46094H1.49805C1.36544 8.46094 1.23826 8.51362 1.14449 8.60738C1.05073 8.70115 0.998047 8.82833 0.998047 8.96094V12.9609C0.998047 13.0935 1.05073 13.2207 1.14449 13.3145C1.23826 13.4083 1.36544 13.4609 1.49805 13.4609H1.99805V14.4609C1.99805 14.5935 2.05073 14.7207 2.14449 14.8145C2.23826 14.9083 2.36544 14.9609 2.49805 14.9609C2.63066 14.9609 2.75783 14.9083 2.8516 14.8145C2.94537 14.7207 2.99805 14.5935 2.99805 14.4609V13.4609H12.998V14.4609C12.998 14.5935 13.0507 14.7207 13.1445 14.8145C13.2383 14.9083 13.3654 14.9609 13.498 14.9609C13.6307 14.9609 13.7578 14.9083 13.8516 14.8145C13.9454 14.7207 13.998 14.5935 13.998 14.4609V13.4609H14.498C14.6307 13.4609 14.7578 13.4083 14.8516 13.3145C14.9454 13.2207 14.9981 13.0935 14.9981 12.9609V8.96094C14.9981 8.82833 14.9454 8.70115 14.8516 8.60738C14.7578 8.51362 14.6307 8.46094 14.498 8.46094ZM10.998 8.46094H8.49805V6.96094H10.998V8.46094ZM4.99805 6.96094H7.49805V8.46094H4.99805V6.96094ZM13.998 12.4609H1.99805V9.46094H13.998V12.4609Z" fill="#33691E"/>
<path d="M2.50586 7.95313C2.63847 7.95313 2.76564 7.90045 2.85941 7.80668C2.95318 7.71291 3.00586 7.58573 3.00586 7.45313V2.95313H13.0059V7.45313C13.0059 7.58573 13.0585 7.71291 13.1523 7.80668C13.2461 7.90045 13.3733 7.95313 13.5059 7.95313C13.6385 7.95313 13.7656 7.90045 13.8594 7.80668C13.9532 7.71291 14.0059 7.58573 14.0059 7.45313V2.45313C14.0059 2.32052 13.9532 2.19334 13.8594 2.09957C13.7656 2.0058 13.6385 1.95313 13.5059 1.95312H2.50586C2.37325 1.95313 2.24607 2.0058 2.15231 2.09957C2.05854 2.19334 2.00586 2.32052 2.00586 2.45313V7.45313C2.00586 7.58573 2.05854 7.71291 2.15231 7.80668C2.24607 7.90045 2.37325 7.95313 2.50586 7.95313Z" fill="#33691E"/>
</svg>
