<svg width="14" height="14" viewBox="0 0 14 14" fill="none" xmlns="http://www.w3.org/2000/svg">
<path d="M3.79442 4.06918C3.95917 2.42164 5.34554 1.16699 7.0013 1.16699C8.65706 1.16699 10.0434 2.42164 10.2082 4.06918L10.3754 5.7411C10.4581 6.56795 10.7423 7.36188 11.2033 8.05329L11.7056 8.80678C11.7852 8.9261 11.8249 8.98576 11.8477 9.02828C12.1846 9.65751 11.7728 10.427 11.0624 10.4957C11.0144 10.5003 10.9427 10.5003 10.7993 10.5003H3.20335C3.05995 10.5003 2.98825 10.5003 2.94024 10.4957C2.22979 10.427 1.81798 9.65751 2.15491 9.02828C2.17768 8.98576 2.21745 8.9261 2.297 8.80679L2.79933 8.05329C3.26027 7.36188 3.54454 6.56795 3.62722 5.7411L3.79442 4.06918Z" fill="#348017"/>
<path d="M5.87439 12.0338C5.94086 12.0958 6.08733 12.1506 6.29108 12.1897C6.49483 12.2288 6.74448 12.25 7.0013 12.25C7.25813 12.25 7.50777 12.2288 7.71152 12.1897C7.91528 12.1506 8.06174 12.0958 8.12822 12.0338" stroke="#348017" stroke-width="2" stroke-linecap="round"/>
</svg>
