<?xml version="1.0" standalone="no"?>
<!DOCTYPE svg PUBLIC "-//W3C//DTD SVG 1.0//EN" "http://www.w3.org/TR/2001/REC-SVG-20010904/DTD/svg10.dtd">
<svg xmlns="http://www.w3.org/2000/svg" xmlns:xlink="http://www.w3.org/1999/xlink" id="body_1" width="505" height="380">

<g transform="matrix(2.5 0 0 2.5 0 0)">
	<g>
		<g>
            <path d="M36.1 100.4L27.999998 80.7L26.699999 102.5C 26.699999 103.4 25.999998 103.6 25.199999 103.6C 24.599998 103.6 23.9 103.5 23.599998 103.299995L23.599998 103.299995L25.399998 77.299995C 25.499998 75.99999 26.199997 75.1 27.599998 75.1C 28.3 75.1 28.699999 75.2 29.099998 75.299995L29.099998 75.299995L38.1 97.799995L45.8 76.799995C 46.2 75.49999 46.899998 75.1 48 75.1C 49 75.1 49.4 75.299995 49.9 75.5L49.9 75.5L53 103.2C 52.6 103.399994 52.1 103.6 51.3 103.6C 50.399998 103.6 49.8 103.4 49.6 102.5L49.6 102.5L47.6 80.7L40.199997 100.399994C 39.799995 101.899994 38.999996 102.09999 37.999996 102.09999C 37.199997 102.09999 36.499996 101.69999 36.099995 100.399994L36.099995 100.399994L36.1 100.4z" stroke="none" fill="#348017" fill-rule="nonzero" />
            <path d="M54 103.2L64.5 75.7C 65 75.399994 65.4 75.2 66.4 75.2C 67.3 75.2 67.9 75.7 68.200005 76.399994L68.200005 76.399994L78.600006 102.899994C 78.3 103.49999 77.700005 103.59999 77.100006 103.59999C 76.3 103.59999 75.600006 103.29999 75.3 102.29999L75.3 102.29999L73 96.59999L59.6 96.59999L57.399998 102.49999C 57.1 103.299995 56.6 103.49999 55.6 103.49999C 54.8 103.69999 54.3 103.49999 54 103.19999L54 103.19999L54 103.2zM60.6 94.1L71.9 94.1L66.200005 79.6z" stroke="none" fill="#348017" fill-rule="nonzero" />
            <path d="M97 77.3C 97.4 77.700005 97.7 78.4 97.7 78.9C 97.7 79.5 97.299995 80.1 96.799995 80.4C 95.49999 79.3 92.99999 78.200005 88.6 78.200005C 84.299995 78.200005 82.6 80.100006 82.6 82.4C 82.6 84.9 84.299995 86.3 89.799995 87.9C 95.899994 89.5 98.799995 91.5 98.799995 96.3C 98.799995 101 95.6 104.200005 88.799995 104.200005C 85.1 104.200005 82.299995 103.3 80.6 102.3C 79.4 101.500015 78.8 100.70001 78.799995 99.9C 78.799995 99.1 79.1 98.6 79.399994 98.3C 81.399994 100 85.09999 101.100006 88.799995 101.100006C 93.899994 101.100006 95.799995 99.100006 95.799995 96.50001C 95.799995 93.90001 94.2 92.40001 88.899994 90.90001C 82.09999 89.00001 79.59999 87.100006 79.59999 82.40001C 79.59999 78.100006 82.399994 74.90001 88.69999 74.90001C 93.39999 74.80001 95.79999 76.100006 96.99999 77.30001L96.99999 77.30001L97 77.3z" stroke="none" fill="#348017" fill-rule="nonzero" />
            <path d="M112.3 78.2L112.3 103.399994C 112.03334 103.6 111.43334 103.7 110.5 103.7C 109.8 103.7 109.2 103.299995 109.2 102.2L109.2 102.2L109.2 78.2L99.6 78.2C 99.4 77.799995 99.2 77.299995 99.2 76.7C 99.2 76 99.6 75.2 100.899994 75.2L100.899994 75.2L121.899994 75.2C 122.09999 75.399994 122.299995 75.899994 122.299995 76.5C 122.299995 77.5 121.899994 78.2 120.99999 78.2L120.99999 78.2L112.3 78.2z" stroke="none" fill="#348017" fill-rule="nonzero" />
            <path d="M127.2 90.6L127.2 100.7L143.2 100.7C 143.4 100.899994 143.59999 101.299995 143.59999 102C 143.59999 103 143.2 103.7 142.29999 103.7L142.29999 103.7L125.499985 103.7C 124.79999 103.7 124.09998 103.5 124.09998 102.2L124.09998 102.2L124.09998 75.5C 124.39999 75.3 124.79998 75.2 125.59998 75.2L125.59998 75.2L143.29999 75.2C 143.49998 75.399994 143.69998 75.799995 143.69998 76.5C 143.69998 77.5 143.29999 78.2 142.39998 78.2L142.39998 78.2L127.29998 78.2L127.29998 87.6L140.89998 87.6C 141.09998 87.799995 141.29997 88.299995 141.29997 89C 141.29997 90 140.79997 90.6 139.99997 90.6L139.99997 90.6L127.2 90.6z" stroke="none" fill="#348017" fill-rule="nonzero" />
            <path d="M156.8 75.2C 161.3 75.2 165 77.299995 165 83.1C 165 87.6 161.9 90.299995 158.4 91.1C 161 94.6 163 101 165.79999 101L165.79999 101L166.9 101C 167.09999 101.2 167.2 101.6 167.2 102.1C 167.2 103.1 166.5 103.799995 164.8 103.799995C 160.6 103.799995 158.8 95.6 155.40001 91.399994L155.40001 91.399994L149.50002 91.399994L149.50002 103.49999C 149.20001 103.69999 148.60002 103.899994 147.90001 103.899994C 147.00002 103.899994 146.3 103.7 146.3 102.399994L146.3 102.399994L146.3 75.7C 146.6 75.5 147.2 75.399994 147.90001 75.399994L147.90001 75.399994L156.8 75.399994L156.8 75.2zM149.5 88.7L155.7 88.7C 159.09999 88.7 162 86.899994 162 83C 162 79.1 159.7 77.6 156.2 77.6L156.2 77.6L149.5 77.6z" stroke="none" fill="#348017" fill-rule="nonzero" />
            <path d="M186.1 77.3C 186.5 77.700005 186.70001 78.4 186.70001 78.9C 186.70001 79.5 186.30002 80.1 185.80002 80.4C 184.50002 79.3 182.00002 78.200005 177.60002 78.200005C 173.30002 78.200005 171.60002 80.100006 171.60002 82.4C 171.60002 84.9 173.30002 86.3 178.80002 87.9C 184.90002 89.5 187.80002 91.5 187.80002 96.3C 187.80002 101 184.60002 104.200005 177.80002 104.200005C 174.10002 104.200005 171.30002 103.3 169.60002 102.3C 168.40002 101.500015 167.80002 100.70001 167.80002 99.9C 167.80002 99.1 168.10002 98.6 168.40002 98.3C 170.40002 100 174.10002 101.100006 177.80002 101.100006C 182.90002 101.100006 184.80002 99.100006 184.80002 96.50001C 184.80002 93.90001 183.20001 92.40001 177.90002 90.90001C 171.10002 89.00001 168.60002 87.100006 168.60002 82.40001C 168.60002 78.100006 171.50002 74.90001 177.70003 74.90001C 182.40002 74.80001 184.90002 76.100006 186.10002 77.30001L186.10002 77.30001L186.1 77.3z" stroke="none" fill="#348017" fill-rule="nonzero" />
		</g>
		<g>
            <path d="M11.8 38.1L43.7 38.1C 43.7 38.1 95.7 13.299999 199.8 38.6C 199.7 38.6 66.100006 -6.4000015 11.800003 38.1L11.800003 38.1L11.8 38.1z" stroke="none" fill="#348017" fill-rule="nonzero" />
            <path d="M39.9 17.5L58.800003 17.5C 58.800003 17.5 102 8 184.3 32.1C 184.3 32.1 78.600006 -6.800003 39.90001 17.499998L39.90001 17.499998L39.9 17.5z" stroke="none" fill="#0976B9" fill-rule="nonzero" />
		</g>
		<g>
            <path d="M100.1 44.4L100.1 68.600006L113.6 68.600006C 113.799995 68.8 114 69.3 114 69.90001C 114 70.90001 113.6 71.600006 112.2 71.600006L112.2 71.600006L98.399994 71.600006C 97.49999 71.600006 96.99999 71.200005 96.99999 70.100006L96.99999 70.100006L96.99999 43.400005C 97.299995 43.200005 97.899994 43.100006 98.59999 43.100006C 99.29999 43.100006 100.09999 43.500008 100.09999 44.400005L100.09999 44.400005L100.1 44.4z" stroke="none" fill="#348017" fill-rule="nonzero" />
            <path d="M115.4 71.2L125.9 43.699997C 126.4 43.399998 126.8 43.199997 127.8 43.199997C 128.7 43.199997 129.3 43.699997 129.6 44.399998L129.6 44.399998L140 70.899994C 139.7 71.49999 139.1 71.59999 138.5 71.59999C 137.7 71.59999 137 71.29999 136.7 70.29999L136.7 70.29999L134.4 64.59999L120.99999 64.59999L118.799995 70.49999C 118.49999 71.299995 117.99999 71.49999 116.99999 71.49999C 116.19999 71.59999 115.69999 71.49999 115.399994 71.19999L115.399994 71.19999L115.4 71.2zM122 61.999996L133.3 61.999996L127.600006 47.499996z" stroke="none" fill="#348017" fill-rule="nonzero" />
            <path d="M144.4 49.2L144.59999 71.3C 144.4 71.5 143.49998 71.700005 142.79999 71.700005C 142.09999 71.700005 141.4 71.50001 141.4 70.200005L141.4 70.200005L141.4 43.500004C 141.79999 43.300003 142.4 43.200005 143.09999 43.200005C 143.79999 43.200005 144.2 43.500004 144.59999 44.000004L144.59999 44.000004L159.9 66L159.79999 43.6C 160.09999 43.399998 160.59999 43.199997 161.29999 43.199997C 162.09999 43.199997 162.99998 43.499996 162.99998 44.499996L162.99998 44.499996L162.99998 71.399994C 162.69998 71.59999 162.19998 71.7 161.39998 71.7C 160.79997 71.7 160.29997 71.399994 159.89998 70.899994L159.89998 70.899994L144.4 49.2z" stroke="none" fill="#348017" fill-rule="nonzero" />
            <path d="M173.7 43.1C 183.4 43.1 188.09999 47.6 188.09999 57.699997C 188.09999 68 183.09999 71.6 174.79999 71.6L174.79999 71.6L168.19998 71.6C 167.29999 71.6 166.59998 71.4 166.59998 70.1L166.59998 70.1L166.59998 43.399998C 166.89998 43.199997 167.39998 43.1 168.19998 43.1L168.19998 43.1L173.7 43.1zM169.7 46.1L169.7 68.8L174.59999 68.8C 181.2 68.8 184.79999 65.9 184.79999 57.800003C 184.79999 49.800003 181.29999 46.100002 173.79999 46.100002z" stroke="none" fill="#348017" fill-rule="nonzero" />
		</g>
		<g>
            <path d="M40.5 68C 40.5 68.6 40.2 69 39.7 69.5C 39 70.2 37 72 32.8 72C 27.3 72 23.4 68.7 23.4 60.6C 23.4 52.8 27.199999 49.199997 32.6 49.199997C 36.3 49.199997 38.199997 50.399998 39.399998 51.799995C 39.8 52.199997 40.1 52.499996 40.1 53.199997C 40.1 53.799995 39.699997 54.199997 39.199997 54.299995C 37.799995 52.499996 35.799995 51.499996 32.699997 51.499996C 28.599997 51.499996 25.799997 54.399998 25.799997 60.6C 25.799997 67.299995 28.699997 69.7 32.799995 69.7C 35.599995 69.7 37.799995 68.799995 39.299995 67C 39.899994 67 40.499996 67.3 40.499996 68L40.499996 68L40.5 68z" stroke="none" fill="#0976B9" fill-rule="nonzero" />
            <path d="M44.4 61.5L44.4 69.3L56.800003 69.3C 57.000004 69.5 57.100002 69.700005 57.100002 70.3C 57.100002 71.100006 56.800003 71.600006 56.100002 71.600006L56.100002 71.600006L43 71.600006C 42.5 71.600006 41.9 71.40001 41.9 70.40001L41.9 70.40001L41.9 49.70001C 42.2 49.500008 42.5 49.40001 43.100002 49.40001L43.100002 49.40001L56.800003 49.40001C 57.000004 49.60001 57.100002 49.80001 57.100002 50.40001C 57.100002 51.20001 56.800003 51.70001 56.100002 51.70001L56.100002 51.70001L44.4 51.70001L44.4 59.000008L55 59.000008C 55.2 59.20001 55.3 59.500008 55.3 60.100006C 55.3 60.900005 55 61.300007 54.3 61.300007L54.3 61.300007L44.4 61.300007L44.4 61.5z" stroke="none" fill="#0976B9" fill-rule="nonzero" />
            <path d="M67.5 49.5C 71 49.5 73.7 50.9 73.7 55.3C 73.7 57.5 72.799995 59 71.399994 60C 73.49999 60.8 74.99999 62.5 74.99999 65.5C 74.99999 70 71.399994 71.7 67.799995 71.7L67.799995 71.7L60.499996 71.7C 59.799995 71.7 59.299995 71.5 59.299995 70.6L59.299995 70.6L59.299995 49.8C 59.599995 49.6 59.899994 49.6 60.499996 49.6L60.499996 49.6L67.5 49.6L67.5 49.5zM61.8 59.3L67 59.3C 69.5 59.2 71.4 58.3 71.4 55.3C 71.4 52.399998 69.8 51.6 67 51.6L67 51.6L61.8 51.6zM61.8 61.3L61.8 69.6L67.2 69.6C 70.1 69.6 72.6 68.7 72.6 65.4C 72.6 62.300003 70.299995 61.300003 67 61.300003z" stroke="none" fill="#0976B9" fill-rule="nonzero" />
            <path d="M90.6 49.8C 90.9 49.6 91.2 49.5 91.799995 49.5C 92.49999 49.5 92.99999 49.8 92.99999 50.5L92.99999 50.5L92.99999 63.6C 92.99999 69.2 90.299995 72 84.799995 72C 79.299995 72 76.799995 69.3 76.799995 63.6L76.799995 63.6L76.799995 49.699997C 77.1 49.499996 77.49999 49.399998 78.1 49.399998C 78.799995 49.399998 79.299995 49.699997 79.299995 50.399998L79.299995 50.399998L79.299995 63.199997C 79.299995 67.5 80.799995 69.7 84.799995 69.7C 88.99999 69.7 90.49999 67.5 90.49999 63.299995L90.49999 63.299995L90.49999 49.799995L90.6 49.8z" stroke="none" fill="#0976B9" fill-rule="nonzero" />
		</g>
	</g>
	<g>
        <path d="M30.7 122.2C 30.2 124.299995 29.800001 126.299995 29.300001 128.4L29.300001 128.4L29.2 128.5L28.7 128.5L28.6 128.4L24.6 116.99999C 23.9 118.899994 23.300001 120.799995 22.6 122.69999C 21.9 124.59999 21.300001 126.49999 20.6 128.4L20.6 128.4L20.5 128.5L20 128.5L19.9 128.4L18.5 121.99999L17.5 117.59999C 17.4 117.29999 17.4 117.09999 17.3 116.69999C 17.199999 116.39999 17.199999 116.09999 17.199999 115.79999C 17.199999 115.69999 17.199999 115.69999 17.3 115.59999C 17.4 115.59999 17.4 115.59999 17.5 115.59999C 17.6 115.59999 17.6 115.59999 17.7 115.59999C 17.800001 115.59999 17.800001 115.59999 17.900002 115.59999L17.900002 115.59999L18.000002 115.69999L20.400002 126.89999C 21.100002 124.999985 21.7 123.19999 22.400002 121.29999C 23.100002 119.499985 23.7 117.59999 24.400002 115.69999L24.400002 115.69999L24.500002 115.59999L25.000002 115.59999L25.100002 115.69999L29.000002 126.89999C 29.400002 124.999985 29.800001 123.09998 30.200003 121.29999C 30.600002 119.39999 31.000002 117.59999 31.400003 115.69999L31.400003 115.69999L31.500004 115.59999L32.000004 115.59999C 32.000004 115.59999 32.100002 115.59999 32.100002 115.69999L32.100002 115.69999L32.100002 115.79999C 31.600002 118.09999 31.100002 120.19999 30.700003 122.19999L30.700003 122.19999L30.7 122.2z" stroke="none" fill="#231F20" fill-rule="nonzero" />
        <path d="M39 124.2C 38 124.2 36.9 124.299995 35.9 124.299995C 34.9 124.299995 33.800003 124.299995 32.800003 124.299995C 32.800003 124.799995 32.9 125.299995 33.000004 125.799995C 33.100002 126.299995 33.300003 126.6 33.600002 126.99999C 33.9 127.299995 34.2 127.59999 34.600002 127.799995C 35.000004 127.99999 35.500004 128.09999 36.000004 128.09999C 36.300003 128.09999 36.600002 128.09999 36.900005 127.99999C 37.200005 127.899994 37.500004 127.799995 37.700005 127.69999C 37.966675 127.566666 38.16667 127.46666 38.300003 127.39999C 38.500004 127.29999 38.600002 127.29999 38.600002 127.29999C 38.600002 127.29999 38.7 127.29999 38.7 127.39999C 38.7 127.499985 38.7 127.499985 38.7 127.59998C 38.7 127.69998 38.7 127.69998 38.7 127.79998C 38.7 127.89998 38.7 127.89998 38.7 127.99998L38.7 127.99998L38.600002 128.09998C 38.400005 128.16666 38.200005 128.26666 38.000004 128.39998C 37.800003 128.49998 37.500004 128.59998 37.300003 128.59998C 37.100002 128.69998 36.800003 128.69998 36.600002 128.69998C 36.4 128.69998 36.100002 128.69998 35.9 128.69998C 35.2 128.69998 34.5 128.59998 34 128.39998C 33.5 128.19998 33.1 127.89998 32.8 127.39998C 32.5 126.99998 32.3 126.49998 32.1 125.89998C 31.999998 125.29998 31.899998 124.69998 31.899998 123.99998C 31.899998 123.39998 31.999998 122.79998 32.199997 122.29998C 32.399998 121.79998 32.6 121.39998 32.899998 120.99998C 33.199997 120.599976 33.6 120.39998 34.1 120.199974C 34.6 119.99998 35.1 119.89997 35.8 119.89997C 36.399998 119.89997 36.899998 119.99997 37.399998 120.199974C 37.8 120.39997 38.1 120.699974 38.399998 121.099976C 38.6 121.49998 38.8 121.89998 38.899998 122.39998C 38.999996 122.89998 39.1 123.39998 39.1 123.99998L39.1 123.99998L39 124.2zM38.3 122.399994C 38.2 121.99999 38 121.7 37.8 121.399994C 37.6 121.09999 37.3 120.899994 37 120.7C 36.7 120.5 36.3 120.399994 35.9 120.399994C 35.4 120.399994 35 120.49999 34.600002 120.59999C 34.2 120.79999 33.9 120.99999 33.600002 121.19999C 33.300003 121.49999 33.100002 121.79999 33.000004 122.19999C 32.800003 122.59999 32.800003 122.99999 32.800003 123.39999C 33.600002 123.39999 35.000004 123.39999 35.800003 123.39999C 36.600002 123.39999 37.500004 123.29999 38.300003 123.29999C 38.36667 123.09999 38.36667 122.79999 38.300003 122.39999z" stroke="none" fill="#231F20" fill-rule="nonzero" />
        <path d="M51.1 126.9C 50.899998 127.3 50.6 127.700005 50.3 127.9C 50.033333 128.16667 49.63333 128.36667 49.1 128.5C 48.6 128.6 48.1 128.7 47.6 128.7C 47.199997 128.7 46.8 128.7 46.399998 128.59999C 45.999996 128.59999 45.6 128.49998 45.199997 128.49998L45.199997 128.49998L44.999996 128.39998L44.999996 115.99998L45.099995 115.89998C 45.899994 115.89998 46.699993 115.79998 47.499996 115.79998C 48.699997 115.79998 49.599995 115.99998 50.199997 116.59998C 50.799995 117.09998 51.1 117.999985 51.1 119.19998C 51.1 119.499985 51.1 119.79998 51 120.09998C 50.9 120.39999 50.8 120.69998 50.6 120.999985C 50.399998 121.29999 50.199997 121.499985 50 121.69998C 49.8 121.89998 49.5 122.09998 49.2 122.19998C 49.600002 122.29998 49.9 122.499985 50.100002 122.69998C 50.4 122.89998 50.600002 123.19998 50.7 123.499985C 50.9 123.79999 51 124.09998 51.100002 124.39999C 51.2 124.69999 51.2 125.09998 51.2 125.39999C 51.4 125.999985 51.3 126.499985 51.100002 126.89999L51.100002 126.89999L51.1 126.9zM49.699997 117.1C 49.23333 116.700005 48.533333 116.50001 47.6 116.5C 47.266666 116.50001 46.966667 116.50001 46.699997 116.5C 46.366665 116.50001 46.066666 116.50001 45.799995 116.5L45.799995 116.5L45.799995 121.9L47.699997 121.9C 48.6 121.9 49.199997 121.700005 49.699997 121.200005C 50.199997 120.700005 50.399998 120.100006 50.399998 119.200005C 50.499996 118.200005 50.199997 117.50001 49.699997 117.100006zM49.899998 123.2C 49.399998 122.7 48.699997 122.5 47.699997 122.5C 47.399998 122.5 47.1 122.5 46.699997 122.5C 46.399998 122.5 46.1 122.5 45.699997 122.5L45.699997 122.5L45.699997 127.9C 45.999996 127.9 46.299995 127.9 46.6 128C 46.86667 128 47.166668 128 47.5 128C 48 128 48.4 128 48.8 127.9C 49.2 127.8 49.5 127.700005 49.8 127.4C 50.1 127.200005 50.3 126.9 50.399998 126.6C 50.499996 126.299995 50.6 125.799995 50.6 125.299995C 50.699997 124.49999 50.399998 123.7 49.899998 123.2z" stroke="none" fill="#231F20" fill-rule="nonzero" />
        <path d="M59.6 128.6L59.199997 128.6L59.1 128.5L59.1 126.8C 58.8 127.4 58.399998 127.9 57.8 128.2C 57.3 128.5 56.6 128.7 55.899998 128.7C 55.399998 128.7 54.899998 128.59999 54.499996 128.4C 54.099995 128.2 53.799995 127.99999 53.499996 127.7C 53.299995 127.399994 53.099995 127 52.999996 126.6C 52.899998 126.2 52.799995 125.7 52.799995 125.2C 52.799995 123.5 52.799995 121.899994 52.899994 120.2L52.899994 120.2L52.999992 120.1L53.499992 120.1C 53.59999 120.1 53.59999 120.2 53.59999 120.2L53.59999 120.2L53.499992 125.2C 53.499992 125.6 53.499992 126 53.59999 126.299995C 53.69999 126.6 53.79999 126.99999 53.999992 127.2C 54.199993 127.5 54.399994 127.7 54.699993 127.799995C 54.999992 127.99999 55.399994 127.99999 55.79999 127.99999C 56.199993 127.99999 56.59999 127.899994 56.999992 127.799995C 57.399994 127.6 57.699993 127.399994 57.999992 127.1C 58.29999 126.799995 58.499992 126.5 58.699993 126.1C 58.899994 125.700005 58.999992 125.3 58.999992 124.9C 58.999992 124.100006 58.999992 123.30001 58.999992 122.5C 58.999992 121.700005 58.999992 120.9 58.999992 120.1L58.999992 120.1L59.09999 120L59.59999 120L59.69999 120.1L59.69999 128.4L59.6 128.6z" stroke="none" fill="#231F20" fill-rule="nonzero" />
        <path d="M62.1 118L61.399998 118L61.3 117.9L61.3 117.200005L61.399998 117.100006L62.1 117.100006L62.199997 117.200005L62.199997 117.9L62.1 118zM62 128.6L61.5 128.6L61.3 128.5L61.3 120.2L61.399998 120.1L61.899998 120.1L61.999996 120.2L61.999996 128.5z" stroke="none" fill="#231F20" fill-rule="nonzero" />
        <path d="M67.7 128.4C 67.5 128.46667 67.299995 128.56668 67.1 128.7C 66.9 128.8 66.6 128.8 66.4 128.8C 65.8 128.8 65.3 128.7 64.9 128.40001C 64.5 128.1 64.3 127.70001 64.1 127.30001C 63.9 126.90001 63.8 126.40001 63.8 125.80001C 63.8 125.30001 63.7 124.70001 63.7 124.20001L63.7 124.20001L63.7 115.000015L63.8 114.90002L64.3 114.90002L64.4 115.000015C 64.4 116.500015 64.4 118.10001 64.4 119.60001C 64.4 121.10001 64.4 122.60001 64.4 124.20001C 64.4 124.533356 64.4 124.93335 64.4 125.40001C 64.4 125.90001 64.5 126.30001 64.6 126.70001C 64.7 127.10001 64.9 127.40001 65.2 127.70001C 65.5 128.00002 65.799995 128.1 66.299995 128.1C 66.49999 128.1 66.7 128.1 66.899994 128C 67.09999 128 67.2 127.9 67.299995 127.8C 67.399994 127.700005 67.49999 127.700005 67.49999 127.600006C 67.59999 127.600006 67.59999 127.50001 67.59999 127.50001C 67.69999 127.50001 67.69999 127.600006 67.69999 127.80001C 67.69999 128.00002 67.69999 128.1 67.69999 128.20001L67.69999 128.20001L67.7 128.4z" stroke="none" fill="#231F20" fill-rule="nonzero" />
        <path d="M75.8 128.6L75.4 128.6L75.3 128.5L75.3 126.9C 75 127.5 74.600006 127.9 74.100006 128.3C 73.600006 128.6 73.00001 128.8 72.3 128.8C 71.600006 128.8 71.100006 128.7 70.600006 128.5C 70.100006 128.3 69.8 128 69.50001 127.6C 69.200005 127.2 69.00001 126.799995 68.90001 126.2C 68.80001 125.7 68.70001 125.1 68.70001 124.5C 68.70001 123 69.000015 121.9 69.70001 121.1C 70.40001 120.4 71.500015 120 73.000015 120C 73.40002 120 73.70001 120 74.10001 120C 74.500015 120 74.80001 120.1 75.20001 120.1L75.20001 120.1L75.20001 115L75.30001 114.9L75.80001 114.9L75.90001 115L75.90001 128.4L75.8 128.6zM74.100006 120.600006C 73.700005 120.600006 73.3 120.600006 73.00001 120.600006C 71.700005 120.600006 70.80001 120.90001 70.200005 121.600006C 69.600006 122.3 69.3 123.200005 69.3 124.40001C 69.3 124.90001 69.3 125.40001 69.5 125.80001C 69.6 126.20001 69.8 126.60001 70 126.90001C 70.2 127.20001 70.5 127.50001 70.9 127.70001C 71.3 127.90001 71.700005 128.00002 72.3 128.00002C 72.8 128.00002 73.200005 127.90002 73.600006 127.70001C 74.00001 127.500015 74.3 127.20001 74.50001 126.90001C 74.700005 126.600006 74.90001 126.20001 75.00001 125.70001C 75.100006 125.30001 75.200005 124.80001 75.200005 124.40001L75.200005 124.40001L75.200005 120.80001C 74.9 120.70001 74.50001 120.70001 74.100006 120.60001z" stroke="none" fill="#231F20" fill-rule="nonzero" />
        <path d="M92.8 120.8C 92.700005 121.200005 92.600006 121.700005 92.4 122.3C 92.200005 122.9 92.1 123.5 91.9 124.200005C 91.700005 124.9 91.5 125.50001 91.3 126.100006C 91.100006 126.700005 91 127.200005 90.8 127.700005C 90.700005 128.1 90.600006 128.40001 90.600006 128.5L90.600006 128.5L90.50001 128.6L90.00001 128.6L89.90001 128.5L87.20001 121.3C 86.80001 122.5 86.30001 123.700005 85.90001 124.9C 85.50001 126.1 85.100006 127.3 84.600006 128.5L84.600006 128.5L84.50001 128.6L84.00001 128.6L83.90001 128.5L81.90001 120.2C 81.90001 120.1 81.90001 120.1 81.90001 120.1C 82.00001 120.1 82.00001 120.1 82.100006 120.1C 82.200005 120.1 82.3 120.1 82.3 120.1C 82.4 120.1 82.4 120.1 82.5 120.1L82.5 120.1L82.6 120.2L84.299995 127.399994C 84.7 126.2 85.1 124.99999 85.6 123.799995C 86 122.6 86.5 121.399994 86.9 120.2L86.9 120.2L87 120.1L87.3 120.1L87.4 120.2L90.1 127.5C 90.4 126.3 90.799995 125.1 91.1 123.9C 91.4 122.700005 91.799995 121.5 92.1 120.3L92.1 120.3L92.2 120.200005L92.6 120.200005L92.7 120.200005C 92.7 120.200005 92.799995 120.200005 92.799995 120.3C 92.99999 120.100006 92.899994 120.4 92.799995 120.8L92.799995 120.8L92.8 120.8z" stroke="none" fill="#231F20" fill-rule="nonzero" />
        <path d="M95.3 118L94.600006 118L94.50001 117.9L94.50001 117.200005L94.600006 117.100006L95.3 117.100006L95.4 117.200005L95.4 117.9L95.3 118zM95.100006 128.6L94.600006 128.6L94.40001 128.5L94.40001 120.2L94.50001 120.1L95.00001 120.1L95.100006 120.2L95.100006 128.5z" stroke="none" fill="#231F20" fill-rule="nonzero" />
        <path d="M101.8 128.2C 101.5 128.4 101.200005 128.5 100.9 128.59999C 100.5 128.7 100.200005 128.7 99.9 128.7C 99.5 128.7 99.1 128.59999 98.8 128.5C 98.5 128.4 98.3 128.2 98.100006 127.9C 97.90001 127.700005 97.8 127.4 97.8 127.1C 97.700005 126.799995 97.700005 126.4 97.700005 126L97.700005 126L97.700005 121L96.50001 121L96.30001 120.9L96.30001 120.5L96.40001 120.4L97.600006 120.4C 97.600006 120 97.600006 119.6 97.600006 119.1C 97.600006 118.7 97.600006 118.2 97.600006 117.799995L97.600006 117.799995L97.700005 117.7L98.100006 117.7L98.3 117.799995L98.3 120.299995L101.4 120.299995L101.6 120.399994L101.6 120.799995L101.5 120.899994L98.4 120.899994L98.4 125.899994C 98.4 126.09999 98.4 126.399994 98.5 126.59999C 98.5 126.79999 98.6 127.09999 98.7 127.29999C 98.799995 127.499985 99 127.59999 99.1 127.79999C 99.299995 127.89999 99.5 127.999985 99.799995 127.999985C 99.99999 127.999985 100.2 127.999985 100.49999 127.89999C 100.69999 127.79999 100.899994 127.79999 101.09999 127.69999C 101.29999 127.59999 101.399994 127.49999 101.49999 127.49999C 101.59999 127.399994 101.69999 127.399994 101.799995 127.399994C 101.799995 127.399994 101.899994 127.399994 101.899994 127.49999C 101.899994 127.59999 101.899994 127.59999 101.899994 127.69999C 101.899994 127.79999 101.899994 127.79999 101.899994 127.89999C 101.899994 127.999985 101.899994 127.999985 101.899994 128.09999L101.899994 128.09999L101.8 128.2z" stroke="none" fill="#231F20" fill-rule="nonzero" />
        <path d="M110.1 128.6L109.6 128.6L109.5 128.5L109.5 123C 109.5 122.6 109.4 122.3 109.3 122C 109.200005 121.7 109 121.5 108.700005 121.3C 108.50001 121.100006 108.200005 121 107.9 120.9C 107.6 120.8 107.200005 120.8 106.9 120.8C 106.6 120.8 106.3 120.9 105.9 121C 105.6 121.1 105.200005 121.3 105 121.5C 104.7 121.7 104.5 121.9 104.3 122.2C 104.100006 122.53334 104 122.833336 104 123.1L104 123.1L104 128.6L103.9 128.70001L103.4 128.70001L103.3 128.6L103.3 115.00001L103.4 114.90001L103.9 114.90001L104 115.00001L104 121.40001C 104.3 120.90001 104.8 120.50001 105.3 120.30001C 105.8 120.10001 106.4 119.90001 106.9 119.90001C 107.4 119.90001 107.9 120.00001 108.3 120.100006C 108.700005 120.200005 109.100006 120.40001 109.4 120.600006C 109.700005 120.8 109.9 121.200005 110.1 121.50001C 110.299995 121.90001 110.299995 122.30001 110.299995 122.90001L110.299995 122.90001L110.299995 128.40001L110.1 128.6z" stroke="none" fill="#231F20" fill-rule="nonzero" />
        <path d="M123.3 116.5C 123.100006 116.8 123 117.3 122.700005 117.8C 122.50001 118.3 122.200005 118.9 121.9 119.4C 121.6 120 121.4 120.5 121.1 121.1C 120.9 121.6 120.6 122.1 120.4 122.5C 120.200005 122.9 120.1 123.1 120 123.2L120 123.2L120 128.5L119.9 128.6L119.4 128.6L119.3 128.5L119.3 123.2C 119.200005 123.1 119.100006 122.799995 118.9 122.399994C 118.700005 121.99999 118.5 121.49999 118.3 120.99999C 118.100006 120.49999 117.8 119.899994 117.5 119.299995C 117.2 118.7 117 118.2 116.8 117.7C 116.600006 117.23334 116.40001 116.833336 116.200005 116.5C 116.100006 116.2 116.00001 116 116.00001 115.9C 116.00001 115.9 116.00001 115.8 116.100006 115.8C 116.200005 115.8 116.200005 115.8 116.3 115.8C 116.4 115.8 116.5 115.8 116.5 115.8C 116.6 115.8 116.6 115.8 116.6 115.8L116.6 115.8L116.7 115.9L119.6 122.4C 120.1 121.3 120.6 120.200005 121.1 119.200005C 121.6 118.100006 122.1 117.100006 122.6 116.00001L122.6 116.00001L122.7 115.90001L123.2 115.90001L123.299995 115.90001C 123.299995 115.90001 123.399994 115.90001 123.399994 116.00001C 123.49999 116.00001 123.399994 116.100006 123.299995 116.50001L123.299995 116.50001L123.3 116.5z" stroke="none" fill="#231F20" fill-rule="nonzero" />
        <path d="M129.8 126C 129.6 126.5 129.40001 127 129.1 127.4C 128.83334 127.8 128.43335 128.1 127.90001 128.3C 127.43335 128.5 126.83334 128.6 126.100006 128.6C 125.43335 128.6 124.83334 128.5 124.3 128.3C 123.8 128.1 123.4 127.8 123 127.4C 122.7 127 122.4 126.5 122.3 126C 122.100006 125.5 122.100006 124.9 122.100006 124.2C 122.100006 123.5 122.200005 122.899994 122.3 122.399994C 122.5 121.899994 122.700005 121.399994 123 120.99999C 123.26667 120.59999 123.66667 120.299995 124.2 120.09999C 124.666664 119.899994 125.26666 119.79999 126 119.79999C 126.66667 119.79999 127.26668 119.899994 127.8 120.09999C 128.33334 120.299995 128.73334 120.59999 129 120.99999C 129.3 121.399994 129.6 121.799995 129.7 122.399994C 129.9 122.899994 129.9 123.49999 129.9 124.2C 130.09999 124.899994 130 125.5 129.79999 126L129.79999 126L129.8 126zM129.2 122.8C 129.09999 122.3 128.9 122 128.59999 121.600006C 128.29999 121.3 127.99999 121.00001 127.59999 120.8C 127.2 120.600006 126.7 120.5 126.09999 120.5C 125.49999 120.5 124.99999 120.600006 124.59999 120.8C 124.19999 121 123.79999 121.200005 123.59999 121.600006C 123.26666 121.93335 123.066666 122.33334 122.99999 122.8C 122.899994 123.3 122.799995 123.8 122.799995 124.3C 122.799995 124.8 122.899994 125.3 122.99999 125.700005C 123.066666 126.16667 123.26666 126.56667 123.59999 126.9C 123.899994 127.200005 124.19999 127.5 124.59999 127.700005C 124.99999 127.9 125.49999 128 125.99999 128C 126.59999 128 126.99999 127.9 127.399994 127.7C 127.799995 127.5 128.09999 127.2 128.4 126.899994C 128.66666 126.566666 128.86667 126.166664 129 125.7C 129.1 125.2 129.2 124.799995 129.2 124.299995C 129.33333 123.7 129.33333 123.2 129.2 122.799995z" stroke="none" fill="#231F20" fill-rule="nonzero" />
        <path d="M138.3 128.6L137.90001 128.6L137.8 128.5L137.8 126.8C 137.5 127.4 137.1 127.9 136.5 128.2C 136 128.5 135.3 128.7 134.6 128.7C 134.1 128.7 133.6 128.59999 133.20001 128.4C 132.80002 128.2 132.50002 127.99999 132.20001 127.7C 132.00002 127.399994 131.80002 127 131.70001 126.6C 131.6 126.2 131.50002 125.7 131.50002 125.2C 131.50002 123.5 131.50002 121.899994 131.60002 120.2L131.60002 120.2L131.70003 120.1L132.20003 120.1C 132.30003 120.1 132.30003 120.2 132.30003 120.2L132.30003 120.2L132.20003 125.2C 132.20003 125.6 132.20003 126 132.30003 126.299995C 132.40004 126.6 132.50003 126.99999 132.70003 127.2C 132.90002 127.5 133.10002 127.7 133.40002 127.799995C 133.70003 127.99999 134.10002 127.99999 134.50003 127.99999C 134.90002 127.99999 135.30003 127.899994 135.70003 127.799995C 136.10002 127.6 136.40002 127.399994 136.70003 127.1C 137.00003 126.799995 137.20003 126.5 137.40002 126.1C 137.60004 125.700005 137.70003 125.3 137.70003 124.9C 137.70003 124.100006 137.70003 123.30001 137.70003 122.5C 137.70003 121.700005 137.70003 120.9 137.70003 120.1L137.70003 120.1L137.80003 120L138.30003 120L138.40004 120.1L138.40004 128.4L138.3 128.6z" stroke="none" fill="#231F20" fill-rule="nonzero" />
        <path d="M145.2 118L144.5 118L144.4 117.9L144.4 117.200005L144.5 117.100006L145.2 117.100006L145.3 117.200005L145.3 117.9L145.2 118zM145 128.6L144.5 128.6L144.3 128.5L144.3 120.2L144.40001 120.1L144.90001 120.1L145.00002 120.2L145.00002 128.5z" stroke="none" fill="#231F20" fill-rule="nonzero" />
        <path d="M153.6 128.6L153.1 128.6L153 128.5L153 123C 153 122.6 152.9 122.3 152.8 122C 152.7 121.7 152.5 121.5 152.2 121.3C 152 121.100006 151.7 121 151.4 120.9C 151.09999 120.8 150.7 120.8 150.4 120.8C 150.09999 120.8 149.79999 120.9 149.5 121C 149.2 121.1 148.8 121.3 148.5 121.5C 148.2 121.7 147.9 121.9 147.7 122.2C 147.5 122.53334 147.4 122.833336 147.4 123.1L147.4 123.1L147.4 128.8L147.29999 128.90001L146.79999 128.90001L146.69998 128.8L146.69998 120.5L146.79999 120.4L147.19998 120.4L147.29999 120.5L147.4 121.8C 147.7 121.3 148.09999 120.9 148.7 120.700005C 149.2 120.4 149.8 120.3 150.4 120.3C 150.9 120.3 151.29999 120.4 151.79999 120.5C 152.19998 120.6 152.59999 120.8 152.9 121C 153.2 121.2 153.4 121.6 153.59999 121.9C 153.79999 122.3 153.9 122.700005 153.9 123.3L153.9 123.3L153.9 128.8L153.6 128.6z" stroke="none" fill="#231F20" fill-rule="nonzero" />
        <path d="M172.5 128.6L172 128.6L171.8 128.5L171.90001 117.4C 171.00002 119.3 170.00002 121.1 169.1 123C 168.20001 124.8 167.20001 126.7 166.3 128.6L166.3 128.6L166.2 128.70001L165.8 128.70001L165.7 128.6C 164.8 126.8 163.9 124.90001 163 123.100006C 162.1 121.3 161.2 119.40001 160.4 117.600006C 160.4 119.40001 160.4 121.3 160.4 123.100006C 160.4 124.90001 160.4 126.8 160.4 128.6L160.4 128.6L160.29999 128.70001L159.79999 128.70001L159.59999 128.6L159.59999 116.00001L159.7 115.90001L160.3 115.90001L160.40001 116.00001L165.90001 127.700005L171.70001 116.00001L171.80002 115.90001L172.40002 115.90001L172.60002 116.00001L172.60002 128.5L172.5 128.6z" stroke="none" fill="#231F20" fill-rule="nonzero" />
        <path d="M174.9 118L174.2 118L174.09999 117.9L174.09999 117.200005L174.2 117.100006L174.9 117.100006L175 117.200005L175 117.9L174.9 118zM174.79999 128.6L174.29999 128.6L174.09999 128.5L174.09999 120.2L174.2 120.1L174.7 120.1L174.8 120.2L174.8 128.5z" stroke="none" fill="#231F20" fill-rule="nonzero" />
        <path d="M183.4 128.6L183 128.6L182.9 128.5L182.9 123C 182.9 122.6 182.79999 122.3 182.7 122C 182.59999 121.7 182.4 121.5 182.09999 121.3C 181.9 121.100006 181.59999 121 181.29999 120.9C 180.99998 120.8 180.59999 120.8 180.29999 120.8C 179.99998 120.8 179.69998 120.9 179.4 121C 179.09999 121.1 178.7 121.3 178.4 121.5C 178.09999 121.7 177.79999 121.9 177.59999 122.2C 177.4 122.53334 177.29999 122.833336 177.29999 123.1L177.29999 123.1L177.29999 128.8L177.19998 128.90001L176.69998 128.90001L176.59998 128.8L176.59998 120.5L176.69998 120.4L177.09998 120.4L177.19998 120.5L177.29999 121.8C 177.59999 121.3 177.99998 120.9 178.59999 120.700005C 179.09999 120.4 179.7 120.3 180.29999 120.3C 180.79999 120.3 181.19998 120.4 181.69998 120.5C 182.09998 120.6 182.49998 120.8 182.79999 121C 183.09999 121.2 183.29999 121.6 183.49998 121.9C 183.69998 122.3 183.79999 122.700005 183.79999 123.3L183.79999 123.3L183.79999 128.8L183.4 128.6z" stroke="none" fill="#231F20" fill-rule="nonzero" />
        <path d="M192.3 128.6L191.90001 128.6L191.8 128.5L191.8 126.9C 191.5 127.5 191.1 127.9 190.6 128.3C 190.1 128.6 189.5 128.8 188.8 128.8C 188.1 128.8 187.6 128.7 187.1 128.5C 186.6 128.3 186.3 128 186 127.6C 185.7 127.2 185.5 126.799995 185.4 126.2C 185.29999 125.7 185.2 125.1 185.2 124.5C 185.2 123 185.5 121.9 186.2 121.1C 186.9 120.4 188 120 189.5 120C 189.9 120 190.2 120 190.6 120C 191 120 191.3 120.1 191.70001 120.1L191.70001 120.1L191.70001 115L191.80002 114.9L192.30002 114.9L192.40002 115L192.40002 128.4L192.3 128.6zM190.5 120.600006C 190.1 120.600006 189.7 120.600006 189.4 120.600006C 188.09999 120.600006 187.2 120.90001 186.59999 121.600006C 185.99998 122.3 185.7 123.200005 185.7 124.40001C 185.7 124.90001 185.7 125.40001 185.9 125.80001C 186 126.20001 186.2 126.60001 186.4 126.90001C 186.59999 127.20001 186.9 127.50001 187.29999 127.70001C 187.69998 127.90001 188.09999 128.00002 188.69998 128.00002C 189.19998 128.00002 189.59998 127.90002 189.99998 127.70001C 190.39998 127.500015 190.69998 127.20001 190.89998 126.90001C 191.09998 126.600006 191.29997 126.20001 191.39998 125.70001C 191.49998 125.30001 191.59998 124.80001 191.59998 124.40001L191.59998 124.40001L191.59998 120.80001C 191.29997 120.70001 190.99997 120.70001 190.49997 120.60001z" stroke="none" fill="#231F20" fill-rule="nonzero" />
	</g>
</g>
</svg>
