<svg width="16" height="17" viewBox="0 0 16 17" fill="none" xmlns="http://www.w3.org/2000/svg">
<path d="M2.33192 6.45455V1H12L14.3333 3.38636V16H1.66667M11 1V4.40909H14.3333M3.66667 9.18182C3.66667 9.18182 3 9.18182 2.33333 9.18182C1.66667 9.18182 1 9.52273 1 10.2045V11.2273C1 11.2273 1 11.5682 1 12.25C1 12.9318 1.66667 13.2727 2.33333 13.2727H3.66667M7.83333 9.18182C7.83333 9.18182 7.16667 9.18182 6.16667 9.18182C5.16667 9.18182 4.83333 9.52273 4.83333 10.2045C4.83333 10.8864 5.16667 11.2273 6.16667 11.2273C7.16667 11.2273 7.5 11.5682 7.5 12.25C7.5 12.9318 7.16667 13.2727 6.16667 13.2727C5.16667 13.2727 4.5 13.2727 4.5 13.2727M12.6667 8.5C12.6667 8.5 12.6667 8.5 12.6667 8.84091C12.6667 9.18182 11 13.2727 11 13.2727H10.6667C10.6667 13.2727 9 9.18182 9 8.84091V8.5" stroke="white" stroke-width="1.5"/>
</svg>
