<svg width="20" height="21" viewBox="0 0 20 21" fill="none" xmlns="http://www.w3.org/2000/svg">
<rect x="2.5" y="5.5" width="15" height="12.5" rx="2" stroke="#348017"/>
<path d="M2.5 8.83333C2.5 7.58718 2.5 6.9641 2.76795 6.5C2.94349 6.19596 3.19596 5.94349 3.5 5.76795C3.9641 5.5 4.58718 5.5 5.83333 5.5H14.1667C15.4128 5.5 16.0359 5.5 16.5 5.76795C16.804 5.94349 17.0565 6.19596 17.2321 6.5C17.5 6.9641 17.5 7.58718 17.5 8.83333H2.5Z" fill="#348017"/>
<path d="M5.83325 3L5.83325 5.5" stroke="#348017" stroke-linecap="round"/>
<path d="M14.1667 3L14.1667 5.5" stroke="#348017" stroke-linecap="round"/>
<rect x="5.83325" y="10.5" width="3.33333" height="1.66667" rx="0.5" fill="#348017"/>
<rect x="5.83325" y="13.8333" width="3.33333" height="1.66667" rx="0.5" fill="#348017"/>
<rect x="10.8333" y="10.5" width="3.33333" height="1.66667" rx="0.5" fill="#348017"/>
<rect x="10.8333" y="13.8333" width="3.33333" height="1.66667" rx="0.5" fill="#348017"/>
</svg>
