<svg width="24" height="24" viewBox="0 0 24 24" fill="none" xmlns="http://www.w3.org/2000/svg">
<path d="M9.50098 14.5015L9.50098 11.5015" stroke="#FF3B30" stroke-width="0.861964" stroke-linecap="round"/>
<path d="M14.501 14.5015L14.501 11.5015" stroke="#FF3B30" stroke-width="0.861964" stroke-linecap="round"/>
<path d="M6.50098 6.49829H17.501V16.0504C17.501 17.6758 17.501 18.4884 16.9961 18.9934C16.4911 19.4983 15.6785 19.4983 14.0531 19.4983H9.94883C8.3235 19.4983 7.51083 19.4983 7.0059 18.9934C6.50098 18.4884 6.50098 17.6758 6.50098 16.0504V6.49829Z" fill="#FF3B30"/>
<path d="M6.50098 6.49829V16.0504C6.50098 17.6758 6.50098 18.4884 7.0059 18.9934C7.51083 19.4983 8.3235 19.4983 9.94883 19.4983H14.0531C15.6785 19.4983 16.4911 19.4983 16.9961 18.9934C17.501 18.4884 17.501 17.6758 17.501 16.0504V6.49829M6.50098 6.49829H3.00098H21.001H17.501M6.50098 6.49829H17.501" stroke="#FF3B30" stroke-width="0.861964" stroke-linecap="round"/>
<path d="M9.50098 3.50171C9.50098 3.50171 10.001 2.50146 12.001 2.50146C14.001 2.50146 14.501 3.50146 14.501 3.50146" stroke="#FF3B30" stroke-width="0.861964" stroke-linecap="round"/>
</svg>
