<svg width="15" height="14" viewBox="0 0 15 14" fill="none" xmlns="http://www.w3.org/2000/svg">
<path d="M7.4318 1.19579L7.08374 0.847778L7.4318 0.499756L7.77986 0.847778L7.4318 1.19579ZM7.92397 10.0548C7.92397 10.3266 7.70358 10.547 7.4318 10.547C7.16003 10.547 6.93963 10.3266 6.93963 10.0548H7.92397ZM2.16211 5.76946L7.08374 0.847778L7.77986 1.5438L2.85813 6.46553L2.16211 5.76946ZM7.77986 0.847778L12.7015 5.76946L12.0054 6.46553L7.08374 1.5438L7.77986 0.847778ZM7.92397 1.19579V10.0548H6.93963V1.19579H7.92397Z" fill="#70AD47"/>
<path d="M0.541016 10.5471V11.5315C0.541016 12.6188 1.42242 13.5001 2.50969 13.5001H12.353C13.4403 13.5001 14.3217 12.6188 14.3217 11.5315V10.5471" stroke="#70AD47"/>
</svg>
