<svg width="20" height="14" viewBox="0 0 20 14" fill="none" xmlns="http://www.w3.org/2000/svg">
<path d="M9.77051 10.4995C11.7035 10.4995 13.2705 8.93251 13.2705 6.99951C13.2705 5.06652 11.7035 3.49951 9.77051 3.49951C7.83751 3.49951 6.27051 5.06652 6.27051 6.99951C6.27051 8.93251 7.83751 10.4995 9.77051 10.4995Z" stroke="#70AD47"/>
<path d="M17.9583 5.9343C18.3465 6.4056 18.5406 6.6412 18.5406 7C18.5406 7.3588 18.3465 7.5944 17.9583 8.0657C16.5382 9.7899 13.406 13 9.77027 13C6.13454 13 3.00233 9.7899 1.58224 8.0657C1.19408 7.5944 1 7.3588 1 7C1 6.6412 1.19408 6.4056 1.58224 5.9343C3.00233 4.21014 6.13454 1 9.77027 1C13.406 1 16.5382 4.21014 17.9583 5.9343Z" stroke="#70AD47"/>
</svg>
