<svg width="14" height="14" viewBox="0 0 14 14" fill="none" xmlns="http://www.w3.org/2000/svg">
<path fill-rule="evenodd" clip-rule="evenodd" d="M6.58203 1.16699V3.25033L6.58202 3.30473C6.58194 3.7288 6.58186 4.14093 6.62756 4.48084C6.67908 4.86405 6.8046 5.30132 7.16782 5.66454C7.53103 6.02775 7.96831 6.15328 8.35151 6.2048C8.69142 6.2505 9.10354 6.25042 9.52761 6.25033H9.52762L9.58203 6.25033H11.6654V9.33366C11.6654 10.9836 11.6654 11.8085 11.1528 12.3211C10.6402 12.8337 9.81528 12.8337 8.16536 12.8337H5.83203C4.18212 12.8337 3.35716 12.8337 2.84459 12.3211C2.33203 11.8085 2.33203 10.9836 2.33203 9.33366V4.66699C2.33203 3.01708 2.33203 2.19212 2.84459 1.67956C3.35716 1.16699 4.18212 1.16699 5.83203 1.16699H6.58203ZM8.58203 1.21329V3.25033C8.58203 3.75 8.58416 4.02416 8.60973 4.21435L8.61072 4.22163L8.61801 4.22263C8.8082 4.2482 9.08236 4.25033 9.58203 4.25033H11.6191C11.6078 4.20505 11.5939 4.16229 11.5766 4.12044C11.4878 3.90605 11.3192 3.73745 10.982 3.40025L10.9819 3.40024L9.43212 1.85041C9.09491 1.51321 8.92631 1.34461 8.71191 1.2558C8.67007 1.23847 8.6273 1.22452 8.58203 1.21329Z" fill="#348017"/>
</svg>
