<svg width="22" height="22" viewBox="0 0 22 22" fill="none" xmlns="http://www.w3.org/2000/svg">
<path d="M3.20801 9.275C3.20801 8.43492 3.20801 8.01488 3.3715 7.69401C3.51531 7.41177 3.74478 7.1823 4.02702 7.03849C4.34789 6.875 4.76793 6.875 5.60801 6.875H7.52133C7.9521 6.875 8.16748 6.875 8.35763 6.94059C8.52579 6.99859 8.67894 7.09325 8.80602 7.21772C8.94972 7.35847 9.04603 7.55112 9.23866 7.93642L10.0107 9.48062C10.2033 9.86591 10.2996 10.0586 10.4433 10.1993C10.5704 10.3238 10.7236 10.4184 10.8917 10.4764C11.0819 10.542 11.2973 10.542 11.728 10.542H16.3913C17.2314 10.542 17.6515 10.542 17.9723 10.7055C18.2546 10.8493 18.484 11.0788 18.6279 11.361C18.7913 11.6819 18.7913 12.102 18.7913 12.942V16.392C18.7913 17.2321 18.7913 17.6522 18.6279 17.973C18.484 18.2553 18.2546 18.4847 17.9723 18.6285C17.6515 18.792 17.2314 18.792 16.3913 18.792H5.60801C4.76793 18.792 4.34789 18.792 4.02702 18.6285C3.74478 18.4847 3.51531 18.2553 3.3715 17.973C3.20801 17.6522 3.20801 17.2321 3.20801 16.392V9.275Z" stroke="#222222"/>
<path d="M16.0413 10.0833V6.62099C16.0413 6.3764 16.0413 6.25411 16.0137 6.13902C15.9892 6.03698 15.9488 5.93944 15.894 5.84997C15.8321 5.74905 15.7457 5.66257 15.5727 5.48962L13.76 3.67688C13.587 3.50393 13.5005 3.41745 13.3996 3.35561C13.3102 3.30078 13.2126 3.26038 13.1106 3.23588C12.9955 3.20825 12.8732 3.20825 12.6286 3.20825H8.35801C7.51793 3.20825 7.09789 3.20825 6.77702 3.37174C6.49478 3.51555 6.26531 3.74502 6.1215 4.02727C5.95801 4.34813 5.95801 4.76817 5.95801 5.60825V7.33325" stroke="#222222"/>
<path d="M12.375 3.20833L12.375 5.275C12.375 5.83505 12.375 6.11508 12.484 6.32899C12.5799 6.51715 12.7328 6.67013 12.921 6.76601C13.1349 6.875 13.4149 6.875 13.975 6.875L16.0417 6.875" stroke="#222222"/>
</svg>
