<svg width="14" height="14" viewBox="0 0 14 14" fill="none" xmlns="http://www.w3.org/2000/svg">
<path fill-rule="evenodd" clip-rule="evenodd" d="M7.95833 2.21094L7.95833 2.19167V1.75H5.9C5.05992 1.75 4.63988 1.75 4.31901 1.91349C4.03677 2.0573 3.8073 2.28677 3.66349 2.56901C3.5 2.88988 3.5 3.30992 3.5 4.15V4.25415C3.69007 4.24997 3.89587 4.24999 4.11391 4.25H4.11391L4.15 4.25H4.45471L4.51397 4.24992C4.74595 4.24944 5.00877 4.24891 5.26652 4.31079C5.491 4.36468 5.7056 4.45357 5.90244 4.57419C6.12845 4.71269 6.31391 4.89891 6.47762 5.06329L6.51946 5.10525L7.14475 5.73054C7.25468 5.84046 7.31405 5.8995 7.36034 5.94174C7.38041 5.96005 7.39148 5.96908 7.39595 5.97256C7.41177 5.98183 7.42879 5.98888 7.44653 5.99351C7.45216 5.99421 7.46636 5.99566 7.49351 5.9969C7.5561 5.99976 7.63983 6 7.79529 6H9.85L9.88609 6H9.8861C10.1003 5.99999 10.3026 5.99998 10.4898 6.00394C10.5 5.78303 10.5 5.51614 10.5 5.18333V4.29167H10.0583L10.0391 4.29167C9.77549 4.29168 9.54811 4.29168 9.36082 4.27638C9.16315 4.26023 8.96654 4.22457 8.77735 4.12818C8.4951 3.98437 8.26563 3.7549 8.12182 3.47265C8.02543 3.28346 7.98977 3.08685 7.97362 2.88918C7.95832 2.70189 7.95832 2.47451 7.95833 2.21094ZM6.21097 7.58333C6.04496 7.46041 5.90187 7.31673 5.77238 7.18671L5.73054 7.14475L5.10525 6.51946C4.99532 6.40954 4.93595 6.3505 4.88966 6.30826C4.86959 6.28994 4.85852 6.28092 4.85405 6.27744C4.83823 6.26817 4.82121 6.26112 4.80347 6.25649C4.79784 6.25579 4.78364 6.25434 4.75649 6.2531C4.6939 6.25024 4.61017 6.25 4.45471 6.25H4.15C3.88995 6.25 3.68997 6.25028 3.52851 6.25395C3.55103 6.46178 3.59134 6.62271 3.66349 6.76432C3.8073 7.04656 4.03677 7.27603 4.31901 7.41984C4.63988 7.58333 5.05992 7.58333 5.9 7.58333H6.21097ZM8.95833 2.19167V1.96988C9.02662 2.02662 9.10344 2.10344 9.21863 2.21863L10.0314 3.03137L10.0314 3.03137C10.1466 3.14656 10.2234 3.22338 10.2801 3.29167H10.0583C9.77006 3.29167 9.58392 3.29128 9.44225 3.2797C9.30642 3.2686 9.25606 3.24977 9.23134 3.23717C9.13726 3.18923 9.06077 3.11274 9.01283 3.01866C9.00023 2.99394 8.98139 2.94358 8.9703 2.80775C8.95872 2.66608 8.95833 2.47994 8.95833 2.19167Z" fill="#348017"/>
<path d="M1.75 7.65C1.75 6.80992 1.75 6.38988 1.91349 6.06901C2.0573 5.78677 2.28677 5.5573 2.56901 5.41349C2.88988 5.25 3.30992 5.25 4.15 5.25H4.45471C4.74822 5.25 4.89497 5.25 5.03308 5.28316C5.15552 5.31255 5.27258 5.36104 5.37994 5.42683C5.50104 5.50104 5.60481 5.60481 5.81236 5.81235L6.43764 6.43765C6.64519 6.64519 6.74896 6.74896 6.87006 6.82317C6.97742 6.88896 7.09448 6.93745 7.21692 6.96684C7.35503 7 7.50178 7 7.79529 7H9.85C10.6901 7 11.1101 7 11.431 7.16349C11.7132 7.3073 11.9427 7.53677 12.0865 7.81901C12.25 8.13988 12.25 8.55992 12.25 9.4V10.4333C12.25 11.2734 12.25 11.6935 12.0865 12.0143C11.9427 12.2966 11.7132 12.526 11.431 12.6698C11.1101 12.8333 10.6901 12.8333 9.85 12.8333H4.15C3.30992 12.8333 2.88988 12.8333 2.56901 12.6698C2.28677 12.526 2.0573 12.2966 1.91349 12.0143C1.75 11.6935 1.75 11.2734 1.75 10.4333V7.65Z" fill="#348017"/>
</svg>
