<svg width="22" height="22" viewBox="0 0 22 22" fill="none" xmlns="http://www.w3.org/2000/svg">
<path d="M3.20898 9.275C3.20898 8.43492 3.20898 8.01488 3.37247 7.69401C3.51628 7.41177 3.74576 7.1823 4.028 7.03849C4.34887 6.875 4.76891 6.875 5.60898 6.875H7.52231C7.95307 6.875 8.16846 6.875 8.35861 6.94059C8.52676 6.99859 8.67992 7.09325 8.807 7.21772C8.9507 7.35847 9.04701 7.55112 9.23964 7.93642L10.0117 9.48062C10.2043 9.86591 10.3006 10.0586 10.4443 10.1993C10.5714 10.3238 10.7245 10.4184 10.8927 10.4764C11.0828 10.542 11.2982 10.542 11.729 10.542H16.3923C17.2324 10.542 17.6524 10.542 17.9733 10.7055C18.2555 10.8493 18.485 11.0788 18.6288 11.361C18.7923 11.6819 18.7923 12.102 18.7923 12.942V16.392C18.7923 17.2321 18.7923 17.6522 18.6288 17.973C18.485 18.2553 18.2555 18.4847 17.9733 18.6285C17.6524 18.792 17.2324 18.792 16.3923 18.792H5.60898C4.76891 18.792 4.34887 18.792 4.028 18.6285C3.74576 18.4847 3.51628 18.2553 3.37247 17.973C3.20898 17.6522 3.20898 17.2321 3.20898 16.392V9.275Z" stroke="white"/>
<path d="M16.0423 10.0833V6.62099C16.0423 6.3764 16.0423 6.25411 16.0147 6.13902C15.9902 6.03698 15.9498 5.93944 15.895 5.84997C15.8331 5.74905 15.7466 5.66257 15.5737 5.48962L13.7609 3.67688C13.588 3.50393 13.5015 3.41745 13.4006 3.35561C13.3111 3.30078 13.2136 3.26038 13.1115 3.23588C12.9965 3.20825 12.8742 3.20825 12.6296 3.20825H8.35898C7.51891 3.20825 7.09887 3.20825 6.778 3.37174C6.49576 3.51555 6.26628 3.74502 6.12247 4.02727C5.95898 4.34813 5.95898 4.76817 5.95898 5.60825V7.33325" stroke="white"/>
<path d="M12.375 3.20833L12.375 5.275C12.375 5.83505 12.375 6.11508 12.484 6.32899C12.5799 6.51715 12.7328 6.67013 12.921 6.76601C13.1349 6.875 13.4149 6.875 13.975 6.875L16.0417 6.875" stroke="white"/>
</svg>
