<svg width="24" height="23" viewBox="0 0 24 23" fill="none" xmlns="http://www.w3.org/2000/svg">
<path d="M4.26891 19.0955V10.2384L2.56835 11.5374L1.45825 10.0495L11.827 2.08984L22.2194 10.0258L21.0857 11.5374L11.827 4.45174L6.15844 8.79764V17.206H9.93748V19.0955H4.26891ZM17.0232 21.3393C16.3618 21.796 15.6338 21.989 14.8389 21.9185C14.044 21.8479 13.3629 21.5289 12.7954 20.9614C12.2279 20.3939 11.9092 19.7131 11.8393 18.9189C11.7694 18.1246 11.9621 17.3962 12.4175 16.7336C11.9608 16.0723 11.7681 15.3442 11.8393 14.5493C11.9105 13.7545 12.2292 13.0733 12.7954 12.5058C13.3616 11.9383 14.0428 11.6196 14.8389 11.5497C15.635 11.4798 16.3631 11.6725 17.0232 12.1279C17.6845 11.6713 18.4129 11.4786 19.2084 11.5497C20.0039 11.6209 20.6848 11.9396 21.251 12.5058C21.8172 13.0721 22.1362 13.7532 22.208 14.5493C22.2798 15.3455 22.0868 16.0736 21.6289 16.7336C22.0855 17.395 22.2786 18.1234 22.208 18.9189C22.1375 19.7143 21.8185 20.3952 21.251 20.9614C20.6835 21.5277 20.0026 21.8467 19.2084 21.9185C18.4142 21.9903 17.6858 21.7972 17.0232 21.3393ZM17.0232 19.0247L18.1097 19.7805C18.3931 19.9852 18.7001 20.0718 19.0308 20.0403C19.3615 20.0088 19.6528 19.8671 19.9047 19.6151C20.1566 19.3632 20.2984 19.0719 20.3298 18.7412C20.3613 18.4106 20.2747 18.1035 20.07 17.8201L19.3142 16.7336L20.07 15.6472C20.2747 15.3637 20.3613 15.0567 20.3298 14.726C20.2984 14.3953 20.1566 14.104 19.9047 13.8521C19.6528 13.6002 19.3615 13.4585 19.0308 13.427C18.7001 13.3955 18.3931 13.4821 18.1097 13.6868L17.0232 14.4426L15.9367 13.6868C15.6533 13.4821 15.3462 13.3955 15.0156 13.427C14.6849 13.4585 14.3936 13.6002 14.1417 13.8521C13.8897 14.104 13.748 14.3953 13.7165 14.726C13.685 15.0567 13.7716 15.3637 13.9763 15.6472L14.7321 16.7336L13.9763 17.8201C13.7716 18.1035 13.685 18.4106 13.7165 18.7412C13.748 19.0719 13.8897 19.3632 14.1417 19.6151C14.3936 19.8671 14.6849 20.0088 15.0156 20.0403C15.3462 20.0718 15.6533 19.9852 15.9367 19.7805L17.0232 19.0247ZM17.0232 17.9146C17.3538 17.9146 17.6335 17.8003 17.8621 17.5716C18.0908 17.343 18.2048 17.0637 18.2041 16.7336C18.2035 16.4036 18.0892 16.1239 17.8612 15.8947C17.6332 15.6654 17.3538 15.5514 17.0232 15.5527C16.6925 15.5539 16.4129 15.6683 16.1842 15.8956C15.9556 16.123 15.8416 16.4023 15.8422 16.7336C15.8429 17.0649 15.9572 17.3446 16.1852 17.5726C16.4132 17.8006 16.6925 17.9146 17.0232 17.9146Z" fill="#348017"/>
</svg>
