<svg width="14" height="14" viewBox="0 0 14 14" fill="none" xmlns="http://www.w3.org/2000/svg">
<path fill-rule="evenodd" clip-rule="evenodd" d="M3.07807 5.90742C2.91797 6.25552 2.91797 6.65153 2.91797 7.44356V9.91712C2.91797 11.0171 2.91797 11.567 3.25968 11.9087C3.51848 12.1676 3.89676 12.2303 4.54297 12.2456V9.33382C4.54297 8.45937 5.25185 7.75049 6.1263 7.75049H7.8763C8.75075 7.75049 9.45963 8.45937 9.45963 9.33382V12.2456C10.1058 12.2303 10.4841 12.1676 10.7429 11.9087C11.0846 11.567 11.0846 11.0171 11.0846 9.91712V7.44356C11.0846 6.65153 11.0846 6.25552 10.9245 5.90742C10.7644 5.55932 10.4638 5.3016 9.86241 4.78616L9.27907 4.28616C8.19214 3.3545 7.64867 2.88867 7.0013 2.88867C6.35393 2.88867 5.81047 3.3545 4.72353 4.28616L4.1402 4.78616C3.53885 5.3016 3.23817 5.55932 3.07807 5.90742ZM7.45963 12.2505V9.75049H6.54297V12.2505H7.45963Z" fill="#348017"/>
</svg>
