<svg width="16" height="18" viewBox="0 0 16 18" fill="none" xmlns="http://www.w3.org/2000/svg">
<path fill-rule="evenodd" clip-rule="evenodd" d="M5.74407 0.239637C5.90036 0.0862036 6.11232 0 6.33333 0H13C14.3807 0 15.5 1.09894 15.5 2.45455V15.5455C15.5 16.9011 14.3807 18 13 18H3C1.61929 18 0.5 16.9011 0.5 15.5455V5.72727C0.5 5.51027 0.5878 5.30217 0.744075 5.14873L5.74407 0.239637ZM13 1.63636H7.16667V5.72727C7.16667 6.17914 6.79358 6.54545 6.33333 6.54545H2.16667V15.5455C2.16667 15.9973 2.53977 16.3636 3 16.3636H13C13.4602 16.3636 13.8333 15.9973 13.8333 15.5455V2.45455C13.8333 2.00268 13.4602 1.63636 13 1.63636ZM3.34517 4.90909H5.5V2.79344L3.34517 4.90909ZM3.83333 9.81818C3.83333 9.3663 4.20643 9 4.66667 9H11.3333C11.7936 9 12.1667 9.3663 12.1667 9.81818C12.1667 10.2701 11.7936 10.6364 11.3333 10.6364H4.66667C4.20643 10.6364 3.83333 10.2701 3.83333 9.81818ZM3.83333 13.0909C3.83333 12.639 4.20643 12.2727 4.66667 12.2727H11.3333C11.7936 12.2727 12.1667 12.639 12.1667 13.0909C12.1667 13.5428 11.7936 13.9091 11.3333 13.9091H4.66667C4.20643 13.9091 3.83333 13.5428 3.83333 13.0909Z" fill="#70AD47"/>
</svg>
