<svg width="24" height="25" viewBox="0 0 24 25" fill="none" xmlns="http://www.w3.org/2000/svg">
<path d="M17.34 5.76469C17.1027 5.76469 16.8707 5.83507 16.6733 5.96692C16.476 6.09878 16.3222 6.2862 16.2313 6.50547C16.1405 6.72474 16.1168 6.96602 16.1631 7.1988C16.2094 7.43157 16.3236 7.64539 16.4915 7.81322C16.6593 7.98104 16.8731 8.09533 17.1059 8.14163C17.3387 8.18793 17.5799 8.16417 17.7992 8.07334C18.0185 7.98252 18.2059 7.82871 18.3378 7.63137C18.4696 7.43403 18.54 7.20202 18.54 6.96469C18.54 6.64643 18.4136 6.3412 18.1885 6.11616C17.9635 5.89112 17.6583 5.76469 17.34 5.76469ZM21.94 8.18469C21.9206 7.35499 21.7652 6.53409 21.48 5.75469C21.2257 5.08782 20.83 4.48397 20.32 3.98469C19.8248 3.47211 19.2196 3.07886 18.55 2.83469C17.7727 2.54085 16.9508 2.3819 16.12 2.36469C15.06 2.30469 14.72 2.30469 12 2.30469C9.28 2.30469 8.94 2.30469 7.88 2.36469C7.04915 2.3819 6.22734 2.54085 5.45 2.83469C4.78168 3.08134 4.17693 3.47425 3.68 3.98469C3.16743 4.47987 2.77418 5.08513 2.53 5.75469C2.23616 6.53203 2.07721 7.35384 2.06 8.18469C2 9.24469 2 9.58469 2 12.3047C2 15.0247 2 15.3647 2.06 16.4247C2.07721 17.2555 2.23616 18.0773 2.53 18.8547C2.77418 19.5242 3.16743 20.1295 3.68 20.6247C4.17693 21.1351 4.78168 21.528 5.45 21.7747C6.22734 22.0685 7.04915 22.2275 7.88 22.2447C8.94 22.3047 9.28 22.3047 12 22.3047C14.72 22.3047 15.06 22.3047 16.12 22.2447C16.9508 22.2275 17.7727 22.0685 18.55 21.7747C19.2196 21.5305 19.8248 21.1373 20.32 20.6247C20.8322 20.1273 21.2283 19.5229 21.48 18.8547C21.7652 18.0753 21.9206 17.2544 21.94 16.4247C21.94 15.3647 22 15.0247 22 12.3047C22 9.58469 22 9.24469 21.94 8.18469ZM20.14 16.3047C20.1327 16.9395 20.0178 17.5684 19.8 18.1647C19.6403 18.5999 19.3839 18.9931 19.05 19.3147C18.7256 19.6452 18.3332 19.9011 17.9 20.0647C17.3037 20.2824 16.6748 20.3974 16.04 20.4047C15.04 20.4547 14.67 20.4647 12.04 20.4647C9.41 20.4647 9.04 20.4647 8.04 20.4047C7.38089 20.417 6.72459 20.3155 6.1 20.1047C5.68578 19.9328 5.31136 19.6775 5 19.3547C4.66809 19.0334 4.41484 18.6399 4.26 18.2047C4.01586 17.5998 3.88044 16.9566 3.86 16.3047C3.86 15.3047 3.8 14.9347 3.8 12.3047C3.8 9.67469 3.8 9.30469 3.86 8.30469C3.86448 7.65574 3.98295 7.01263 4.21 6.40469C4.38605 5.9826 4.65627 5.60635 5 5.30469C5.30381 4.96086 5.67929 4.68778 6.1 4.50469C6.70955 4.28473 7.352 4.16977 8 4.16469C9 4.16469 9.37 4.10469 12 4.10469C14.63 4.10469 15 4.10469 16 4.16469C16.6348 4.17197 17.2637 4.28693 17.86 4.50469C18.3144 4.67334 18.7223 4.94753 19.05 5.30469C19.3777 5.61187 19.6338 5.98742 19.8 6.40469C20.0223 7.01362 20.1373 7.65647 20.14 8.30469C20.19 9.30469 20.2 9.67469 20.2 12.3047C20.2 14.9347 20.19 15.3047 20.14 16.3047ZM12 7.17469C10.9858 7.17666 9.99496 7.47921 9.15265 8.04411C8.31035 8.609 7.65438 9.41088 7.26763 10.3484C6.88089 11.286 6.78072 12.3172 6.97979 13.3116C7.17886 14.3061 7.66824 15.2192 8.38608 15.9357C9.10392 16.6521 10.018 17.1397 11.0129 17.3368C12.0077 17.534 13.0387 17.4318 13.9755 17.0432C14.9123 16.6547 15.7129 15.9971 16.2761 15.1537C16.8394 14.3103 17.14 13.3189 17.14 12.3047C17.1413 11.6298 17.0092 10.9613 16.7512 10.3376C16.4933 9.71399 16.1146 9.1475 15.6369 8.67074C15.1592 8.19398 14.5919 7.81637 13.9678 7.55962C13.3436 7.30287 12.6749 7.17205 12 7.17469ZM12 15.6347C11.3414 15.6347 10.6976 15.4394 10.15 15.0735C9.60234 14.7076 9.17552 14.1875 8.92348 13.579C8.67144 12.9705 8.6055 12.301 8.73398 11.655C8.86247 11.0091 9.17963 10.4157 9.64533 9.95002C10.111 9.48431 10.7044 9.16716 11.3503 9.03867C11.9963 8.91018 12.6659 8.97613 13.2743 9.22817C13.8828 9.48021 14.4029 9.90702 14.7688 10.4546C15.1347 11.0023 15.33 11.6461 15.33 12.3047C15.33 12.742 15.2439 13.175 15.0765 13.579C14.9092 13.983 14.6639 14.3501 14.3547 14.6594C14.0454 14.9686 13.6784 15.2139 13.2743 15.3812C12.8703 15.5486 12.4373 15.6347 12 15.6347Z" fill="white"/>
</svg>
