<svg width="24" height="23" viewBox="0 0 24 23" fill="none" xmlns="http://www.w3.org/2000/svg">
<path d="M15.3021 18.2785C14.5179 18.2785 13.8849 17.4849 13.8849 16.5024C13.8849 15.5293 14.5179 14.7357 15.3021 14.7357C16.0862 14.7357 16.7192 15.5293 16.7192 16.5024C16.7192 17.4849 16.0862 18.2785 15.3021 18.2785ZM11.7592 10.8338C10.5877 10.8338 9.63349 10.0402 9.63349 9.06709C9.63349 8.08454 10.5877 7.29094 11.7592 7.29094C12.9307 7.29094 13.8849 8.08454 13.8849 9.06709C13.8849 10.0402 12.9307 10.8338 11.7592 10.8338ZM8.21635 18.2785C7.4322 18.2785 6.79921 17.4849 6.79921 16.5024C6.79921 15.5293 7.4322 14.7357 8.21635 14.7357C9.0005 14.7357 9.63349 15.5293 9.63349 16.5024C9.63349 17.4849 9.0005 18.2785 8.21635 18.2785ZM11.7592 7.99951C12.1466 7.99951 12.4678 8.32073 12.4678 8.70808C12.4678 9.09543 12.1466 9.41665 11.7592 9.41665C11.3719 9.41665 11.0506 9.09543 11.0506 8.70808C11.0506 8.32073 11.3719 7.99951 11.7592 7.99951ZM18.1363 11.5424C17.834 11.5424 17.5411 11.6085 17.2766 11.7313C16.8231 11.155 16.209 10.6637 15.4721 10.2858C16.0106 9.53002 16.3318 8.6136 16.3318 7.6216V7.56492C17.3616 7.34762 18.1363 6.43121 18.1363 5.32584C18.1363 4.06931 17.1066 3.03952 15.85 3.03952C15.1981 3.03952 14.5935 3.3135 14.1967 3.74809C13.468 3.285 12.6226 3.03906 11.7592 3.03906C10.8959 3.03906 10.0504 3.285 9.32172 3.74809C8.92492 3.3135 8.32028 3.03952 7.66839 3.03952C6.41186 3.03952 5.38207 4.06931 5.38207 5.32584C5.38207 6.42176 6.15677 7.33818 7.17712 7.56492V7.6216C7.17712 8.6136 7.50778 9.53947 8.03685 10.2858C7.30938 10.6637 6.69529 11.155 6.2418 11.7313C5.91895 11.5859 5.56475 11.5238 5.21168 11.5507C4.8586 11.5776 4.51792 11.6927 4.22085 11.8854C3.92379 12.0782 3.67982 12.3423 3.51132 12.6538C3.34281 12.9652 3.25515 13.314 3.25636 13.6681C3.25636 14.849 4.20112 15.7938 5.38207 15.7938H5.43876C5.40097 16.0205 5.38207 16.2662 5.38207 16.5024C5.38207 18.458 6.64805 20.0452 8.21635 20.0452C9.17056 20.0452 10.0114 19.45 10.531 18.543C10.9278 18.5997 11.3341 18.6281 11.7592 18.6281C12.1843 18.6281 12.5906 18.5997 12.9874 18.543C13.507 19.45 14.3478 20.0452 15.3021 20.0452C16.8704 20.0452 18.1363 18.458 18.1363 16.5024C18.1363 16.2662 18.1174 16.0205 18.0797 15.7938H18.1363C19.3173 15.7938 20.2621 14.849 20.2621 13.6681C20.2621 12.4871 19.3173 11.5424 18.1363 11.5424Z" fill="#348017"/>
</svg>
