<svg width="24" height="25" viewBox="0 0 24 25" fill="none" xmlns="http://www.w3.org/2000/svg">
<path d="M20.4705 2.30483H3.53055C3.34013 2.30218 3.15105 2.33707 2.97411 2.40751C2.79718 2.47795 2.63585 2.58255 2.49934 2.71534C2.36284 2.84813 2.25383 3.00651 2.17854 3.18144C2.10325 3.35636 2.06316 3.54441 2.06055 3.73483V20.8748C2.06316 21.0652 2.10325 21.2533 2.17854 21.4282C2.25383 21.6031 2.36284 21.7615 2.49934 21.8943C2.63585 22.0271 2.79718 22.1317 2.97411 22.2021C3.15105 22.2726 3.34013 22.3075 3.53055 22.3048H20.4705C20.661 22.3075 20.85 22.2726 21.027 22.2021C21.2039 22.1317 21.3652 22.0271 21.5017 21.8943C21.6383 21.7615 21.7473 21.6031 21.8226 21.4282C21.8978 21.2533 21.9379 21.0652 21.9405 20.8748V3.73483C21.9379 3.54441 21.8978 3.35636 21.8226 3.18144C21.7473 3.00651 21.6383 2.84813 21.5017 2.71534C21.3652 2.58255 21.2039 2.47795 21.027 2.40751C20.85 2.33707 20.661 2.30218 20.4705 2.30483ZM8.09055 19.0448H5.09055V10.0448H8.09055V19.0448ZM6.59055 8.78483C6.17681 8.78483 5.78002 8.62047 5.48746 8.32791C5.1949 8.03536 5.03055 7.63857 5.03055 7.22483C5.03055 6.81109 5.1949 6.4143 5.48746 6.12174C5.78002 5.82918 6.17681 5.66483 6.59055 5.66483C6.81024 5.63991 7.03272 5.66168 7.24342 5.72871C7.45412 5.79574 7.64829 5.90652 7.8132 6.05379C7.97812 6.20106 8.11007 6.38151 8.20042 6.58331C8.29076 6.78511 8.33746 7.00372 8.33746 7.22483C8.33746 7.44593 8.29076 7.66454 8.20042 7.86634C8.11007 8.06815 7.97812 8.24859 7.8132 8.39587C7.64829 8.54314 7.45412 8.65391 7.24342 8.72094C7.03272 8.78797 6.81024 8.80974 6.59055 8.78483ZM18.9105 19.0448H15.9105V14.2148C15.9105 13.0048 15.4805 12.2148 14.3905 12.2148C14.0532 12.2173 13.7247 12.3231 13.4494 12.518C13.174 12.7129 12.965 12.9875 12.8505 13.3048C12.7723 13.5399 12.7384 13.7874 12.7505 14.0348V19.0348H9.75055C9.75055 19.0348 9.75055 10.8548 9.75055 10.0348H12.7505V11.3048C13.0231 10.8319 13.4195 10.4423 13.897 10.178C14.3745 9.91371 14.9151 9.78468 15.4605 9.80483C17.4605 9.80483 18.9105 11.0948 18.9105 13.8648V19.0448Z" fill="white"/>
</svg>
