<svg width="15" height="15" viewBox="0 0 15 15" fill="none" xmlns="http://www.w3.org/2000/svg">
<path d="M10 1.16667L1.5715 9.59517C1.20511 9.96155 1.02192 10.1447 0.901475 10.3698C0.781029 10.5949 0.73022 10.8489 0.628602 11.357L0.126784 13.8661C0.0694442 14.1528 0.0407744 14.2961 0.122323 14.3777C0.203872 14.4592 0.347221 14.4306 0.633919 14.3732L3.14301 13.8714L3.14303 13.8714C3.65111 13.7698 3.90515 13.719 4.1302 13.5985C4.35525 13.4781 4.53845 13.2949 4.90484 12.9285L13.3333 4.5L13.3333 4.49999C13.7498 4.08354 13.958 3.87531 14.0774 3.65524C14.3554 3.14258 14.3554 2.52409 14.0774 2.01143C13.958 1.79136 13.7498 1.58313 13.3333 1.16667L13.3333 1.16667C12.9169 0.750206 12.7086 0.541975 12.4886 0.422616C11.9759 0.144561 11.3574 0.144561 10.8448 0.422616C10.6247 0.541974 10.4165 0.750202 10 1.16666L10 1.16667Z" fill="white"/>
</svg>
