<svg width="22" height="22" viewBox="0 0 22 22" fill="none" xmlns="http://www.w3.org/2000/svg">
<path d="M2 9.32026H20.8235M6.18301 2V4.0915M16.6405 2V4.0915M5.34641 20.8235H17.4771C18.6485 20.8235 19.2342 20.8235 19.6816 20.5956C20.0751 20.3951 20.3951 20.0751 20.5956 19.6816C20.8235 19.2342 20.8235 18.6485 20.8235 17.4771V7.43791C20.8235 6.26655 20.8235 5.68088 20.5956 5.23349C20.3951 4.83994 20.0751 4.51998 19.6816 4.31947C19.2342 4.0915 18.6485 4.0915 17.4771 4.0915H5.34641C4.17506 4.0915 3.58938 4.0915 3.14198 4.31947C2.74843 4.51998 2.42848 4.83994 2.22796 5.23349C2 5.68088 2 6.26655 2 7.43791V17.4771C2 18.6485 2 19.2342 2.22796 19.6816C2.42848 20.0751 2.74843 20.3951 3.14198 20.5956C3.58938 20.8235 4.17505 20.8235 5.34641 20.8235Z" stroke="#A5A5A5" stroke-width="2.0915" stroke-linecap="round" stroke-linejoin="round"/>
</svg>
