<svg width="19" height="19" viewBox="0 0 19 19" fill="none" xmlns="http://www.w3.org/2000/svg">
<path d="M2.37501 5.14583V5.14583C2.37501 4.05277 3.26111 3.16667 4.35417 3.16667L15.2679 3.16667C15.4258 3.16667 15.5048 3.16667 15.5682 3.18888C15.6819 3.22867 15.7713 3.31806 15.8111 3.43176C15.8333 3.49524 15.8333 3.57421 15.8333 3.73214V3.73214C15.8333 4.67973 15.8333 5.15353 15.7001 5.53441C15.4613 6.21662 14.925 6.75301 14.2427 6.99172C13.8619 7.125 13.3881 7.125 12.4405 7.125H11.875M2.37501 5.14583V5.14583C2.37501 6.2389 3.26111 7.125 4.35417 7.125L15.0417 7.125C15.7881 7.125 16.1613 7.125 16.3931 7.35687C16.625 7.58875 16.625 7.96194 16.625 8.70833L16.625 10.2917M2.37501 5.14583L2.37501 13.4583C2.37501 14.9511 2.37501 15.6975 2.83875 16.1613C3.3025 16.625 4.04889 16.625 5.54167 16.625L15.0417 16.625C15.7881 16.625 16.1613 16.625 16.3931 16.3931C16.625 16.1613 16.625 15.7881 16.625 15.0417L16.625 13.4583M16.625 13.4583H13.4583C12.7119 13.4583 12.3387 13.4583 12.1069 13.2265C12.1069 13.2265 12.1069 13.2265 12.1069 13.2265C11.875 12.9946 11.875 12.6214 11.875 11.875V11.875C11.875 11.1286 11.875 10.7554 12.1069 10.5235C12.1069 10.5235 12.1069 10.5235 12.1069 10.5235C12.3387 10.2917 12.7119 10.2917 13.4583 10.2917H16.625M16.625 13.4583L16.625 10.2917" stroke="#FFFFFF" stroke-width="1.5"/>
</svg>
