<svg width="24" height="23" viewBox="0 0 24 23" fill="none" xmlns="http://www.w3.org/2000/svg">
<path d="M7.14577 7.76188C6.95788 7.76188 6.77769 7.83651 6.64484 7.96937C6.51199 8.10222 6.43735 8.28241 6.43735 8.4703V11.7763C6.43735 12.1673 6.75472 12.4847 7.14577 12.4847H17.0637C17.2516 12.4847 17.4318 12.4101 17.5646 12.2772C17.6975 12.1443 17.7721 11.9642 17.7721 11.7763V8.4703C17.7721 8.28241 17.6975 8.10222 17.5646 7.96937C17.4318 7.83651 17.2516 7.76188 17.0637 7.76188H7.14577ZM7.85419 11.0678V9.17872H16.3553V11.0678H7.85419ZM13.7577 13.4293C13.5698 13.4293 13.3896 13.5039 13.2568 13.6367C13.1239 13.7696 13.0493 13.9498 13.0493 14.1377V14.421C13.2023 14.3896 13.3597 14.3738 13.5216 14.3738H17.7721V14.1377C17.7721 13.9498 17.6975 13.7696 17.5646 13.6367C17.4318 13.5039 17.2516 13.4293 17.0637 13.4293H13.7577ZM11.6324 14.1377V15.3184C11.3359 15.7132 11.1602 16.2034 11.1602 16.7352V20.0412H4.31208C4.1242 20.0412 3.94401 19.9666 3.81115 19.8337C3.6783 19.7008 3.60366 19.5207 3.60366 19.3328V6.56417C3.24354 6.35623 2.96209 6.03527 2.80296 5.65108C2.64384 5.26688 2.61592 4.84092 2.72355 4.43924C2.83118 4.03756 3.06834 3.68262 3.39825 3.42947C3.72816 3.17631 4.13238 3.03908 4.54822 3.03906H19.6612C20.0771 3.03908 20.4813 3.17631 20.8112 3.42947C21.1411 3.68262 21.3783 4.03756 21.4859 4.43924C21.5935 4.84092 21.5656 5.26688 21.4065 5.65108C21.2474 6.03527 20.9659 6.35623 20.6058 6.56417V14.3738H19.1889V6.81731H5.0205V18.6243H6.43735V14.1377C6.43735 13.9498 6.51199 13.7696 6.64484 13.6367C6.77769 13.5039 6.95788 13.4293 7.14577 13.4293H10.924C11.1119 13.4293 11.2921 13.5039 11.425 13.6367C11.5578 13.7696 11.6324 13.9498 11.6324 14.1377ZM4.07594 4.92819C4.07594 5.05344 4.1257 5.17357 4.21427 5.26214C4.30284 5.35071 4.42297 5.40047 4.54822 5.40047H19.6612C19.7865 5.40047 19.9066 5.35071 19.9952 5.26214C20.0837 5.17357 20.1335 5.05344 20.1335 4.92819C20.1335 4.80293 20.0837 4.6828 19.9952 4.59423C19.9066 4.50566 19.7865 4.45591 19.6612 4.45591H4.54822C4.42297 4.45591 4.30284 4.50566 4.21427 4.59423C4.1257 4.6828 4.07594 4.80293 4.07594 4.92819ZM10.2156 18.6243V14.8461H7.85419V18.6243H10.2156ZM12.1047 16.7352C12.1047 16.3595 12.254 15.9991 12.5197 15.7334C12.7854 15.4677 13.1458 15.3184 13.5216 15.3184H21.0781C21.4538 15.3184 21.8142 15.4677 22.0799 15.7334C22.3456 15.9991 22.4949 16.3595 22.4949 16.7352V20.5135C22.4949 20.8892 22.3456 21.2496 22.0799 21.5153C21.8142 21.781 21.4538 21.9303 21.0781 21.9303H13.5216C13.1458 21.9303 12.7854 21.781 12.5197 21.5153C12.254 21.2496 12.1047 20.8892 12.1047 20.5135V16.7352ZM21.5504 17.2075C21.2998 17.2075 21.0596 17.108 20.8824 16.9308C20.7053 16.7537 20.6058 16.5135 20.6058 16.2629H19.6612C19.6612 16.764 19.8603 17.2445 20.2145 17.5988C20.5688 17.953 21.0493 18.1521 21.5504 18.1521V17.2075ZM21.5504 19.0966C21.0493 19.0966 20.5688 19.2957 20.2145 19.6499C19.8603 20.0042 19.6612 20.4847 19.6612 20.9858H20.6058C20.6058 20.7352 20.7053 20.495 20.8824 20.3178C21.0596 20.1407 21.2998 20.0412 21.5504 20.0412V19.0966ZM13.9938 16.2629C13.9938 16.5135 13.8943 16.7537 13.7172 16.9308C13.5401 17.108 13.2998 17.2075 13.0493 17.2075V18.1521C13.5503 18.1521 14.0308 17.953 14.3851 17.5988C14.7394 17.2445 14.9384 16.764 14.9384 16.2629H13.9938ZM14.9384 20.9858C14.9384 20.4847 14.7394 20.0042 14.3851 19.6499C14.0308 19.2957 13.5503 19.0966 13.0493 19.0966V20.0412C13.2998 20.0412 13.5401 20.1407 13.7172 20.3178C13.8943 20.495 13.9938 20.7352 13.9938 20.9858H14.9384ZM18.9528 18.6243C18.9528 18.1859 18.7786 17.7655 18.4687 17.4555C18.1587 17.1455 17.7382 16.9714 17.2998 16.9714C16.8614 16.9714 16.441 17.1455 16.131 17.4555C15.821 17.7655 15.6468 18.1859 15.6468 18.6243C15.6468 19.0627 15.821 19.4832 16.131 19.7932C16.441 20.1032 16.8614 20.2773 17.2998 20.2773C17.7382 20.2773 18.1587 20.1032 18.4687 19.7932C18.7786 19.4832 18.9528 19.0627 18.9528 18.6243Z" fill="#348017"/>
</svg>
