<svg width="50" height="50" viewBox="0 0 50 50" fill="none" xmlns="http://www.w3.org/2000/svg">
<path fill-rule="evenodd" clip-rule="evenodd" d="M25 43.75C35.3553 43.75 43.75 35.3553 43.75 25C43.75 14.6447 35.3553 6.25 25 6.25C14.6447 6.25 6.25 14.6447 6.25 25C6.25 35.3553 14.6447 43.75 25 43.75ZM34.1016 19.3902C34.4551 18.9659 34.3978 18.3353 33.9735 17.9818C33.5492 17.6282 32.9187 17.6855 32.5651 18.1098L23.5505 28.9274C23.2038 29.3434 23.0089 29.5738 22.8532 29.7153L22.8473 29.7207L22.8409 29.7159C22.6731 29.589 22.4581 29.3772 22.0752 28.9943L17.3738 24.2929C16.9832 23.9024 16.3501 23.9024 15.9596 24.2929C15.569 24.6834 15.569 25.3166 15.9596 25.7071L20.6609 30.4085L20.7018 30.4493C21.0283 30.776 21.3424 31.0902 21.6346 31.3111C21.962 31.5587 22.3907 31.7915 22.9401 31.7665C23.4895 31.7416 23.8954 31.471 24.199 31.1948C24.47 30.9483 24.7544 30.6069 25.0499 30.2521L25.05 30.2521L25.0869 30.2077L34.1016 19.3902Z" fill="#348017"/>
</svg>
