<svg width="24" height="23" viewBox="0 0 24 23" fill="none" xmlns="http://www.w3.org/2000/svg">
<path d="M8.16074 17.21L7.21617 20.9883M15.7172 17.21L16.6618 20.9883M17.6064 8.70898C15.9978 8.70898 15.7172 10.5981 15.7172 10.5981C15.4934 11.4926 15.3961 13.5678 14.6168 14.1761C14.3599 14.3764 14.0057 14.3764 13.2973 14.3764H10.5807C9.87228 14.3764 9.51807 14.3764 9.26115 14.1761C8.48189 13.5678 8.3846 11.4926 8.16074 10.5981C8.16074 10.5981 7.8802 8.70898 6.27161 8.70898C5.85577 8.709 5.45154 8.84623 5.12164 9.09939C4.79173 9.35255 4.55457 9.70749 4.44694 10.1092C4.33931 10.5108 4.36722 10.9368 4.52635 11.321C4.68548 11.7052 4.96693 12.0262 5.32705 12.2341L5.68787 14.1364C5.96746 15.6071 6.10726 16.342 6.63149 16.7765C7.15572 17.211 7.90382 17.21 9.4 17.21H14.478C15.9742 17.21 16.7223 17.21 17.2465 16.7755C17.7707 16.3411 17.9105 15.6071 18.1901 14.1364L18.5509 12.2341C18.911 12.0262 19.1925 11.7052 19.3516 11.321C19.5108 10.9368 19.5387 10.5108 19.431 10.1092C19.3234 9.70749 19.0862 9.35255 18.7563 9.09939C18.4264 8.84623 18.0222 8.709 17.6064 8.70898Z" stroke="#348017" stroke-width="1.66199" stroke-linecap="round" stroke-linejoin="round"/>
<path d="M8.63242 12.0136C9.51369 11.4261 10.6708 11.069 11.9384 11.069C13.206 11.069 14.3631 11.4261 15.2444 12.0136M7.23069 8.70764L7.05689 7.48632C6.69984 4.97851 6.52132 3.72413 7.22502 2.90992C7.92872 2.0957 9.1916 2.0957 11.7174 2.0957H12.1594C14.6852 2.0957 15.9471 2.0957 16.6518 2.90992C17.3555 3.72413 17.1769 4.97851 16.8199 7.48632L16.6461 8.70764" stroke="#348017" stroke-width="1.66199" stroke-linecap="round" stroke-linejoin="round"/>
</svg>
