<svg width="16" height="17" viewBox="0 0 16 17" fill="none" xmlns="http://www.w3.org/2000/svg">
<g clip-path="url(#clip0_584_73)">
<path d="M15.25 0.460938H0.75C0.551159 0.461169 0.360528 0.540261 0.219926 0.680863C0.0793236 0.821465 0.000231577 1.0121 0 1.21094L0 15.7109C0.000231577 15.9098 0.0793236 16.1004 0.219926 16.241C0.360528 16.3816 0.551159 16.4607 0.75 16.4609H15.25C15.4488 16.4607 15.6395 16.3816 15.7801 16.241C15.9207 16.1004 15.9998 15.9098 16 15.7109V1.21094C15.9998 1.0121 15.9207 0.821465 15.7801 0.680863C15.6395 0.540261 15.4488 0.461169 15.25 0.460938ZM15.5 15.7109C15.4999 15.7772 15.4736 15.8408 15.4267 15.8876C15.3798 15.9345 15.3163 15.9609 15.25 15.9609H0.75C0.683716 15.9609 0.620166 15.9345 0.573296 15.8876C0.526427 15.8408 0.500066 15.7772 0.5 15.7109V1.21094C0.500066 1.14465 0.526427 1.0811 0.573296 1.03423C0.620166 0.987364 0.683716 0.961004 0.75 0.960938H15.25C15.3163 0.961004 15.3798 0.987364 15.4267 1.03423C15.4736 1.0811 15.4999 1.14465 15.5 1.21094V15.7109Z" fill="#33691E"/>
<path d="M10.248 5.71875H5.74805C5.61549 5.71892 5.48841 5.77165 5.39468 5.86538C5.30094 5.95911 5.24821 6.08619 5.24805 6.21875V10.7187C5.24818 10.8513 5.3009 10.9784 5.39464 11.0722C5.48838 11.1659 5.61548 11.2186 5.74805 11.2187H10.248C10.3806 11.2186 10.5077 11.1659 10.6015 11.0722C10.6952 10.9784 10.7479 10.8513 10.748 10.7187V6.21875C10.7479 6.08619 10.6951 5.95911 10.6014 5.86538C10.5077 5.77165 10.3806 5.71892 10.248 5.71875ZM5.74805 10.7187V6.21875H10.248L10.2483 10.7187H5.74805Z" fill="#33691E"/>
<path d="M9.49537 6.71022H6.49537C6.42907 6.71022 6.36548 6.73655 6.3186 6.78344C6.27171 6.83032 6.24537 6.89391 6.24537 6.96022V9.96022C6.24537 10.0265 6.27171 10.0901 6.3186 10.137C6.36548 10.1839 6.42907 10.2102 6.49537 10.2102H9.49537C9.56168 10.2102 9.62527 10.1839 9.67215 10.137C9.71903 10.0901 9.74537 10.0265 9.74537 9.96022V6.96022C9.74537 6.89391 9.71903 6.83032 9.67215 6.78344C9.62527 6.73655 9.56168 6.71022 9.49537 6.71022ZM9.24537 9.71022H6.74537V7.21022H9.24537V9.71022ZM2.80162 2.85059L3.08637 2.87647C3.11907 2.87944 3.15204 2.87594 3.18338 2.86617C3.21473 2.8564 3.24385 2.84055 3.26907 2.81953C3.29429 2.79851 3.31513 2.77273 3.33039 2.74366C3.34564 2.71458 3.35503 2.68279 3.358 2.65009C3.36097 2.61739 3.35747 2.58443 3.3477 2.55308C3.33793 2.52173 3.32209 2.49262 3.30107 2.46739C3.28004 2.44217 3.25426 2.42134 3.22519 2.40608C3.19612 2.39082 3.16432 2.38144 3.13162 2.37847L2.15937 2.29009C2.12287 2.28677 2.08609 2.29152 2.05162 2.30399C2.01716 2.31647 1.98586 2.33637 1.95994 2.36229C1.93402 2.3882 1.91412 2.4195 1.90165 2.45397C1.88917 2.48843 1.88443 2.52521 1.88775 2.56172L1.97612 3.53397C1.98174 3.59608 2.01036 3.65386 2.05639 3.69595C2.10241 3.73804 2.1625 3.76141 2.22487 3.76147C2.23237 3.76147 2.24 3.76109 2.24775 3.76022C2.31374 3.75419 2.37465 3.72221 2.41707 3.6713C2.4595 3.62039 2.47997 3.55472 2.474 3.48872L2.44825 3.20409L4.30225 5.05809C4.3494 5.10363 4.41255 5.12883 4.4781 5.12826C4.54365 5.12769 4.60635 5.1014 4.6527 5.05505C4.69905 5.00869 4.72535 4.94599 4.72592 4.88044C4.72649 4.81489 4.70129 4.75174 4.65575 4.70459L2.80162 2.85059ZM4.30225 11.8623L2.44825 13.7163L2.47412 13.4316C2.48009 13.3656 2.45958 13.2998 2.4171 13.2489C2.37462 13.198 2.31366 13.1661 2.24762 13.1601C2.18158 13.1541 2.11588 13.1746 2.06496 13.2171C2.01405 13.2596 1.98209 13.3206 1.97612 13.3866L1.88775 14.3587C1.8846 14.3933 1.8887 14.4282 1.89979 14.4611C1.91087 14.494 1.9287 14.5243 1.95213 14.5499C1.97556 14.5756 2.00407 14.5961 2.03586 14.6101C2.06765 14.6241 2.10201 14.6313 2.13675 14.6313C2.14425 14.6313 2.15175 14.631 2.15937 14.6303L3.13162 14.542C3.19766 14.536 3.25861 14.504 3.30107 14.453C3.34352 14.4021 3.364 14.3364 3.358 14.2703C3.352 14.2043 3.32001 14.1434 3.26907 14.1009C3.21813 14.0584 3.15241 14.038 3.08637 14.044L2.80175 14.0698L4.65575 12.2158C4.70129 12.1687 4.72649 12.1055 4.72592 12.04C4.72535 11.9744 4.69905 11.9117 4.6527 11.8654C4.60635 11.819 4.54365 11.7927 4.4781 11.7922C4.41255 11.7916 4.3494 11.8168 4.30225 11.8623ZM13.8314 2.29009L12.8591 2.37847C12.8264 2.38144 12.7946 2.39082 12.7656 2.40608C12.7365 2.42134 12.7107 2.44217 12.6897 2.46739C12.6687 2.49262 12.6528 2.52173 12.643 2.55308C12.6333 2.58443 12.6298 2.61739 12.6327 2.65009C12.6357 2.68279 12.6451 2.71458 12.6604 2.74366C12.6756 2.77273 12.6965 2.79851 12.7217 2.81953C12.7469 2.84055 12.776 2.8564 12.8074 2.86617C12.8387 2.87594 12.8717 2.87944 12.9044 2.87647L13.189 2.85059L11.335 4.70459C11.3111 4.72765 11.2921 4.75524 11.279 4.78574C11.2659 4.81624 11.259 4.84905 11.2587 4.88224C11.2584 4.91544 11.2647 4.94836 11.2773 4.97908C11.2899 5.0098 11.3084 5.03772 11.3319 5.06119C11.3554 5.08466 11.3833 5.10323 11.414 5.1158C11.4447 5.12837 11.4777 5.13469 11.5108 5.1344C11.544 5.13411 11.5768 5.12722 11.6073 5.11412C11.6378 5.10101 11.6654 5.08197 11.6885 5.05809L13.5425 3.20409L13.5166 3.48872C13.5106 3.55474 13.5311 3.62044 13.5735 3.67138C13.6159 3.72232 13.6769 3.75432 13.7429 3.76034C13.7506 3.76109 13.7584 3.76134 13.766 3.76134C13.8283 3.76125 13.8884 3.73789 13.9344 3.69583C13.9804 3.65376 14.009 3.59604 14.0146 3.53397L14.103 2.56172C14.1063 2.52521 14.1016 2.48843 14.0891 2.45397C14.0766 2.4195 14.0567 2.3882 14.0308 2.36229C14.0049 2.33637 13.9736 2.31647 13.9391 2.30399C13.9047 2.29152 13.8679 2.28677 13.8314 2.29009ZM13.743 13.1601C13.677 13.1661 13.6161 13.1981 13.5737 13.249C13.5312 13.2999 13.5108 13.3656 13.5167 13.4316L13.5425 13.7163L11.6885 11.8623C11.6413 11.8168 11.5782 11.7916 11.5126 11.7922C11.4471 11.7927 11.3844 11.819 11.338 11.8654C11.2917 11.9117 11.2654 11.9744 11.2648 12.04C11.2643 12.1055 11.2895 12.1687 11.335 12.2158L13.189 14.0698L12.9044 14.044C12.8383 14.038 12.7726 14.0584 12.7217 14.1009C12.6707 14.1434 12.6387 14.2043 12.6327 14.2703C12.6267 14.3364 12.6472 14.4021 12.6897 14.453C12.7321 14.504 12.7931 14.536 12.8591 14.542L13.8314 14.6303C13.8389 14.631 13.8465 14.6313 13.854 14.6313C13.8887 14.6313 13.9231 14.6241 13.9549 14.6101C13.9866 14.5961 14.0151 14.5756 14.0386 14.55C14.062 14.5243 14.0798 14.4941 14.0909 14.4612C14.102 14.4283 14.1061 14.3934 14.103 14.3588L14.0146 13.3865C14.0083 13.3206 13.9762 13.2598 13.9254 13.2174C13.8745 13.175 13.809 13.1544 13.743 13.1601Z" fill="#33691E"/>
</g>
<defs>
<clipPath id="clip0_584_73">
<rect width="16" height="16" fill="white" transform="translate(0 0.457031)"/>
</clipPath>
</defs>
</svg>
