<svg width="19" height="19" viewBox="0 0 19 19" fill="none" xmlns="http://www.w3.org/2000/svg">
<path d="M9.67081 4.98622C10.7343 6.66015 12.1633 8.08031 13.8564 9.13368L6.3964 16.5946C6.03023 16.9608 5.84685 17.1441 5.62198 17.2645C5.39696 17.385 5.14262 17.4364 4.63468 17.538L1.0839 18.2479C0.797199 18.3053 0.653727 18.3334 0.572179 18.2518C0.490827 18.1703 0.518843 18.0273 0.576085 17.7411L1.28702 14.1903C1.3886 13.6824 1.43914 13.428 1.55948 13.203C1.67993 12.978 1.86302 12.794 2.22941 12.4276L9.67081 4.98622ZM14.6425 0.383682C14.8994 0.323929 15.1668 0.323929 15.4237 0.383682C15.9036 0.495389 16.3078 0.899571 17.1161 1.7079C17.9244 2.51615 18.3285 2.9205 18.4403 3.40028C18.5001 3.65717 18.5001 3.92465 18.4403 4.18153C18.3287 4.66154 17.9247 5.06635 17.1161 5.87489L15.1132 7.87685C13.376 6.87885 11.9343 5.44716 10.9237 3.73231L12.9501 1.7079C13.7585 0.899538 14.1626 0.495334 14.6425 0.383682Z" fill="#067AC5"/>
</svg>
