<svg width="25" height="25" viewBox="0 0 25 25" fill="none" xmlns="http://www.w3.org/2000/svg">
<path d="M9.04391 14.5121C9.23967 14.5121 9.42741 14.4343 9.56582 14.2959C9.70424 14.1575 9.78201 13.9697 9.78201 13.774V12.5386H15.6868V13.9493C15.6868 14.145 15.7645 14.3328 15.9029 14.4712C16.0414 14.6096 16.2291 14.6874 16.4249 14.6874C16.6206 14.6874 16.8083 14.6096 16.9468 14.4712C17.0852 14.3328 17.163 14.145 17.163 13.9493V3.68145C17.163 3.4857 17.0852 3.29796 16.9468 3.15954C16.8083 3.02112 16.6206 2.94336 16.4249 2.94336C16.2291 2.94336 16.0414 3.02112 15.9029 3.15954C15.7645 3.29796 15.6868 3.4857 15.6868 3.68145V5.15764H9.78201V3.68145C9.78201 3.4857 9.70424 3.29796 9.56582 3.15954C9.42741 3.02112 9.23967 2.94336 9.04391 2.94336C8.84816 2.94336 8.66042 3.02112 8.522 3.15954C8.38358 3.29796 8.30582 3.4857 8.30582 3.68145V13.774C8.30582 13.9697 8.38358 14.1575 8.522 14.2959C8.66042 14.4343 8.84816 14.5121 9.04391 14.5121ZM9.78201 11.0624V9.58621H15.6868V11.0624H9.78201ZM15.6868 6.63383V8.11002H9.78201V6.63383H15.6868ZM3.13916 16.2291C3.13916 16.0333 3.21692 15.8456 3.35534 15.7071C3.49376 15.5687 3.6815 15.491 3.87725 15.491C5.20767 15.491 5.92454 15.9689 6.50118 16.3527C7.01415 16.6959 7.42195 16.9671 8.30582 16.9671C9.18969 16.9671 9.59748 16.6959 10.1105 16.3527C10.6862 15.9689 11.4021 15.491 12.7335 15.491C14.0648 15.491 14.7817 15.9689 15.3574 16.3527C15.8722 16.6959 16.28 16.9671 17.163 16.9671C18.0459 16.9671 18.4546 16.6959 18.9676 16.3527C19.5442 15.9689 20.2593 15.491 21.5915 15.491C21.7873 15.491 21.975 15.5687 22.1134 15.7071C22.2518 15.8456 22.3296 16.0333 22.3296 16.2291C22.3296 16.4248 22.2518 16.6125 22.1134 16.751C21.975 16.8894 21.7873 16.9671 21.5915 16.9671C20.7076 16.9671 20.2999 17.2384 19.7869 17.5816C19.2102 17.9654 18.4952 18.4433 17.163 18.4433C15.8307 18.4433 15.1147 17.9654 14.539 17.5816C14.026 17.2384 13.6173 16.9671 12.7344 16.9671C11.8514 16.9671 11.4427 17.2384 10.9297 17.5816C10.354 17.9654 9.63808 18.4433 8.30674 18.4433C6.9754 18.4433 6.25945 17.9654 5.68282 17.5816C5.16892 17.2384 4.76112 16.9671 3.87725 16.9671C3.6815 16.9671 3.49376 16.8894 3.35534 16.751C3.21692 16.6125 3.13916 16.4248 3.13916 16.2291ZM22.3296 19.9195C22.3296 20.1153 22.2518 20.303 22.1134 20.4414C21.975 20.5799 21.7873 20.6576 21.5915 20.6576C20.7076 20.6576 20.2999 20.9289 19.7869 21.2721C19.2102 21.6559 18.4952 22.1338 17.163 22.1338C15.8307 22.1338 15.1147 21.6559 14.539 21.2721C14.026 20.9289 13.6173 20.6576 12.7344 20.6576C11.8514 20.6576 11.4427 20.9289 10.9297 21.2721C10.354 21.6559 9.63808 22.1338 8.30674 22.1338C6.9754 22.1338 6.25945 21.6559 5.68282 21.2721C5.16892 20.9289 4.76112 20.6576 3.87725 20.6576C3.6815 20.6576 3.49376 20.5799 3.35534 20.4414C3.21692 20.303 3.13916 20.1153 3.13916 19.9195C3.13916 19.7238 3.21692 19.536 3.35534 19.3976C3.49376 19.2592 3.6815 19.1814 3.87725 19.1814C5.20767 19.1814 5.92454 19.6593 6.50118 20.0432C7.01415 20.3864 7.42195 20.6576 8.30582 20.6576C9.18969 20.6576 9.59748 20.3864 10.1105 20.0432C10.6862 19.6593 11.4021 19.1814 12.7335 19.1814C14.0648 19.1814 14.7817 19.6593 15.3574 20.0432C15.8722 20.3864 16.28 20.6576 17.163 20.6576C18.0459 20.6576 18.4546 20.3864 18.9676 20.0432C19.5442 19.6593 20.2593 19.1814 21.5915 19.1814C21.7873 19.1814 21.975 19.2592 22.1134 19.3976C22.2518 19.536 22.3296 19.7238 22.3296 19.9195Z" fill="#348017"/>
</svg>
