<svg width="23" height="16" viewBox="0 0 23 16" fill="none" xmlns="http://www.w3.org/2000/svg">
<path fill-rule="evenodd" clip-rule="evenodd" d="M0 14.9995L0.128072 0L17.2703 0.146368L22.5632 7.69183L17.1422 15.1458L0 14.9995ZM4.35874 6.46493L11.8585 6.52896L11.8768 4.38619L4.37704 4.32215L4.35874 6.46493ZM16.6569 9.2486C17.5444 9.25618 18.2701 8.54281 18.2777 7.65524C18.2852 6.76767 17.5719 6.04201 16.6843 6.03444C15.7967 6.02686 15.0711 6.74023 15.0635 7.6278C15.0559 8.51537 15.7693 9.24103 16.6569 9.2486ZM4.32215 10.7505L11.8219 10.8145L11.8402 8.67174L4.34045 8.60771L4.32215 10.7505Z" fill="#175D5F"/>
</svg>
