<svg width="24" height="23" viewBox="0 0 24 23" fill="none" xmlns="http://www.w3.org/2000/svg">
<path d="M20.5722 9.65025H16.7939V7.76113L12.5434 6.06091V3.98288H14.9048V2.09375H11.5988V6.06091L7.3483 7.76113V9.65025H3.57005C3.05054 9.65025 2.62549 10.0753 2.62549 10.5948V20.985H10.182V16.2622H13.9602V20.985H21.5167V10.5948C21.5167 10.0753 21.0917 9.65025 20.5722 9.65025ZM8.29286 19.0959H4.51461V16.2622H8.29286V19.0959ZM8.29286 14.3731H4.51461V11.5394H8.29286V14.3731ZM12.0711 7.76113C12.5906 7.76113 13.0157 8.18618 13.0157 8.70569C13.0157 9.2252 12.5906 9.65025 12.0711 9.65025C11.5516 9.65025 11.1266 9.2252 11.1266 8.70569C11.1266 8.18618 11.5516 7.76113 12.0711 7.76113ZM13.9602 14.3731H10.182V11.5394H13.9602V14.3731ZM19.6276 19.0959H15.8494V16.2622H19.6276V19.0959ZM19.6276 14.3731H15.8494V11.5394H19.6276V14.3731Z" fill="#348017"/>
</svg>
