<svg width="26" height="26" viewBox="0 0 26 26" fill="none" xmlns="http://www.w3.org/2000/svg">
<path d="M10.2217 15.6058L10.2217 12.4808" stroke="#FF3B30" stroke-width="0.861964" stroke-linecap="round"/>
<path d="M15.4297 15.6058L15.4297 12.4808" stroke="#FF3B30" stroke-width="0.861964" stroke-linecap="round"/>
<path d="M7.09701 7.26917H18.5553V17.363C18.5553 18.9883 18.5553 19.801 18.0504 20.3059C17.5455 20.8108 16.7328 20.8108 15.1075 20.8108H10.5449C8.91953 20.8108 8.10686 20.8108 7.60193 20.3059C7.09701 19.801 7.09701 18.9883 7.09701 17.363V7.26917Z" fill="#FF3B30"/>
<path d="M7.09701 7.26917V17.363C7.09701 18.9883 7.09701 19.801 7.60193 20.3059C8.10686 20.8108 8.91953 20.8108 10.5449 20.8108H15.1075C16.7328 20.8108 17.5455 20.8108 18.0504 20.3059C18.5553 19.801 18.5553 18.9883 18.5553 17.363V7.26917M7.09701 7.26917H3.45117H22.2012H18.5553M7.09701 7.26917H18.5553" stroke="#FF3B30" stroke-width="0.861964" stroke-linecap="round"/>
<path d="M10.2214 4.14751C10.2214 4.14751 10.7422 3.10559 12.8255 3.10559C14.9089 3.10559 15.4297 4.14726 15.4297 4.14726" stroke="#FF3B30" stroke-width="0.861964" stroke-linecap="round"/>
</svg>
