<svg width="24" height="25" viewBox="0 0 24 25" fill="none" xmlns="http://www.w3.org/2000/svg">
<path d="M22 6.1049C21.2483 6.43099 20.4534 6.64656 19.64 6.7449C20.4982 6.23222 21.1413 5.42568 21.45 4.4749C20.6436 4.95496 19.7608 5.29319 18.84 5.4749C18.2245 4.80747 17.405 4.36319 16.5098 4.21175C15.6147 4.0603 14.6945 4.21026 13.8938 4.63809C13.093 5.06592 12.4569 5.74743 12.0852 6.57573C11.7135 7.40404 11.6273 8.33229 11.84 9.2149C10.2094 9.13242 8.61444 8.70785 7.15865 7.96876C5.70287 7.22967 4.41885 6.19259 3.39 4.9249C3.02914 5.55507 2.83952 6.26872 2.84 6.9949C2.83872 7.66928 3.00422 8.33351 3.32176 8.92846C3.63929 9.52341 4.09902 10.0306 4.66 10.4049C4.00798 10.3872 3.36989 10.2122 2.8 9.8949V9.9449C2.80489 10.8898 3.13599 11.804 3.73731 12.5329C4.33864 13.2617 5.17326 13.7605 6.1 13.9449C5.74326 14.0535 5.37287 14.1107 5 14.1149C4.74189 14.1119 4.48442 14.0885 4.23 14.0449C4.49391 14.8577 5.00462 15.568 5.69107 16.0771C6.37753 16.5861 7.20558 16.8684 8.06 16.8849C6.6172 18.0202 4.83588 18.6398 3 18.6449C2.66574 18.646 2.33174 18.626 2 18.5849C3.87443 19.7952 6.05881 20.4376 8.29 20.4349C9.82969 20.4509 11.3571 20.1599 12.7831 19.579C14.2091 18.998 15.505 18.1388 16.5952 17.0514C17.6854 15.964 18.548 14.6703 19.1326 13.2458C19.7172 11.8213 20.012 10.2946 20 8.7549C20 8.5849 20 8.4049 20 8.2249C20.7847 7.63971 21.4615 6.92232 22 6.1049Z" fill="white"/>
</svg>
