<svg width="28" height="16" viewBox="0 0 28 16" fill="none" xmlns="http://www.w3.org/2000/svg">
<path d="M13.9999 5.70294C15.2751 5.70294 16.3141 6.74306 16.3141 8.01717C16.3141 9.29129 15.274 10.2981 13.9999 10.2981C12.7258 10.2981 11.7189 9.29129 11.7189 8.01717C11.7189 6.74306 12.7258 5.70294 13.9999 5.70294ZM13.9999 0C21.5813 0 27.0481 7.11123 27.0481 7.11123C27.4173 7.58138 27.4173 8.4197 27.0481 8.88877C27.0481 8.88877 21.5802 16 13.9999 16C6.41961 16 0.95174 8.88877 0.95174 8.88877C0.582493 8.41862 0.582493 7.5803 0.95174 7.11123C0.95174 7.11123 6.41961 0 13.9999 0ZM13.9999 13.7534C17.1535 13.7534 19.7361 11.1708 19.7361 8.01717C19.7361 4.86354 17.1535 2.28096 13.9999 2.28096C10.8463 2.28096 8.26369 4.86354 8.26369 8.01717C8.26369 11.1708 10.8463 13.7534 13.9999 13.7534Z" fill="#067AC5"/>
</svg>
