<svg width="27" height="27" viewBox="0 0 27 27" fill="none" xmlns="http://www.w3.org/2000/svg">
<path d="M14.0001 0.304689C11.7535 0.30365 9.54494 0.884844 7.58985 1.99159C5.63477 3.09834 3.99988 4.69287 2.8446 6.61967C1.68932 8.54648 1.0531 10.7398 0.997977 12.9857C0.942854 15.2316 1.47071 17.4535 2.53007 19.4347L1.00007 25.0447C0.94949 25.2201 0.947912 25.4061 0.995508 25.5824C1.0431 25.7587 1.13806 25.9185 1.27007 26.0447C1.36833 26.1344 1.48351 26.2036 1.60886 26.2483C1.73421 26.2929 1.86721 26.3121 2.00007 26.3047C2.08948 26.3192 2.18066 26.3192 2.27007 26.3047L8.18007 24.6547C8.43601 24.5844 8.65354 24.4153 8.78481 24.1847C8.91609 23.954 8.95036 23.6806 8.88007 23.4247C8.80979 23.1688 8.64072 22.9512 8.41005 22.8199C8.17938 22.6887 7.90601 22.6544 7.65007 22.7247L3.42007 23.8647L4.57007 19.5647C4.60421 19.4377 4.61295 19.3051 4.59579 19.1747C4.57863 19.0443 4.53591 18.9186 4.47007 18.8047C3.25941 16.7078 2.77445 14.27 3.0904 11.8694C3.40634 9.46875 4.50554 7.23945 6.21752 5.52717C7.92951 3.8149 10.1586 2.71533 12.5592 2.39898C14.9597 2.08263 17.3976 2.56718 19.4947 3.77748C21.5919 4.98778 23.2311 6.85621 24.1581 9.09302C25.0852 11.3298 25.2483 13.81 24.6223 16.149C23.9962 18.488 22.6158 20.555 20.6953 22.0296C18.7748 23.5042 16.4214 24.3039 14.0001 24.3047C13.3837 24.3053 12.7682 24.2551 12.1601 24.1547C11.8989 24.1113 11.6311 24.1732 11.4156 24.3269C11.2 24.4807 11.0541 24.7136 11.0101 24.9747C10.9667 25.2359 11.0286 25.5036 11.1823 25.7192C11.336 25.9348 11.569 26.0806 11.8301 26.1247C13.6029 26.4228 15.4184 26.35 17.1616 25.9108C18.9049 25.4716 20.5382 24.6757 21.9582 23.5732C23.3782 22.4707 24.5541 21.0857 25.4116 19.5056C26.2691 17.9256 26.7896 16.1848 26.9402 14.3934C27.0907 12.602 26.8681 10.7988 26.2863 9.09777C25.7046 7.39675 24.7763 5.83489 23.5602 4.51087C22.3442 3.18684 20.8667 2.12943 19.2211 1.40545C17.5756 0.681469 15.7978 0.306655 14.0001 0.304689Z" fill="#33691E"/>
<path d="M12.9991 8.51398L11.8391 6.91398C11.6643 6.6742 11.4398 6.475 11.1809 6.33002C10.922 6.18505 10.6349 6.09771 10.3391 6.07398C10.0419 6.05208 9.74337 6.09432 9.46387 6.19784C9.18437 6.30136 8.93038 6.46374 8.71911 6.67398L7.51911 7.87398C7.25097 8.1478 7.04167 8.47358 6.9041 8.83128C6.76652 9.18899 6.70357 9.57105 6.71911 9.95398C6.71911 11.724 8.07911 13.954 10.7191 16.554C13.8091 19.554 15.9491 20.554 17.4091 20.554C17.7803 20.5637 18.1494 20.4968 18.4935 20.3575C18.8377 20.2181 19.1493 20.0092 19.4091 19.744L20.6091 18.544C20.8274 18.3392 20.997 18.0879 21.1053 17.8089C21.2136 17.5298 21.2579 17.2299 21.2349 16.9314C21.2118 16.6329 21.1221 16.3434 20.9722 16.0843C20.8224 15.8251 20.6163 15.6029 20.3691 15.434L18.7991 14.304C18.5377 14.1165 18.2366 13.9919 17.9192 13.9399C17.6018 13.8879 17.2767 13.9098 16.9691 14.004L15.4791 14.474C15.386 14.4674 15.2963 14.4363 15.2191 14.384C14.3317 13.7469 13.5403 12.9858 12.8691 12.124C12.8626 12.0876 12.8626 12.0504 12.8691 12.014C12.9991 11.574 13.2191 10.864 13.3691 10.374C13.4662 10.0575 13.4832 9.72196 13.4186 9.39734C13.354 9.07271 13.2099 8.76919 12.9991 8.51398ZM14.2891 16.144C14.8238 16.4371 15.4521 16.5089 16.0391 16.344L17.5791 15.884L19.1891 17.134L17.9991 18.304C17.5191 18.774 15.7491 18.634 12.1391 15.094C9.13911 12.184 8.72911 10.594 8.72911 9.91398C8.73662 9.68333 8.83343 9.46462 8.99911 9.30398L10.2791 8.11398L11.4591 9.76398C11.2991 10.254 11.0691 10.984 10.9491 11.414C10.8067 11.8728 10.8243 12.3665 10.9991 12.814C11.8615 14.1467 12.9964 15.2816 14.3291 16.144H14.2891Z" fill="#33691E"/>
</svg>
