<svg width="24" height="25" viewBox="0 0 24 25" fill="none" xmlns="http://www.w3.org/2000/svg">
<path d="M22.9991 10.0142C23.0485 8.58284 22.7355 7.1622 22.0891 5.88418C21.6505 5.35978 21.0418 5.00589 20.3691 4.88418C17.5866 4.63171 14.7926 4.52823 11.9991 4.57418C9.2157 4.52614 6.43176 4.62628 3.65905 4.87418C3.11087 4.9739 2.60357 5.23103 2.19905 5.61418C1.29905 6.44418 1.19905 7.86418 1.09905 9.06418C0.953962 11.2217 0.953962 13.3866 1.09905 15.5442C1.12798 16.2196 1.22854 16.89 1.39905 17.5442C1.51963 18.0492 1.76357 18.5165 2.10905 18.9042C2.51632 19.3076 3.03543 19.5794 3.59905 19.6842C5.75497 19.9503 7.92727 20.0606 10.0991 20.0142C13.5991 20.0642 16.669 20.0142 20.299 19.7342C20.8765 19.6358 21.4102 19.3637 21.8291 18.9542C22.109 18.6741 22.3181 18.3313 22.4391 17.9542C22.7967 16.8568 22.9723 15.7083 22.959 14.5542C22.9991 13.9942 22.9991 10.6142 22.9991 10.0142ZM9.73905 15.1542V8.96418L15.659 12.0742C13.9991 12.9942 11.809 14.0342 9.73905 15.1542Z" fill="white"/>
</svg>
